<?xml version="1.0" encoding="UTF-8" standalone="no"?>
<!-- Created with Inkscape (http://www.inkscape.org/) -->

<svg
   width="305.49097mm"
   height="199.32471mm"
   viewBox="0 0 305.49097 199.32471"
   version="1.1"
   id="svg1"
   inkscape:version="1.4.1 (93de688d07, 2025-03-30)"
   sodipodi:docname="align.svg"
   xmlns:inkscape="http://www.inkscape.org/namespaces/inkscape"
   xmlns:sodipodi="http://sodipodi.sourceforge.net/DTD/sodipodi-0.dtd"
   xmlns="http://www.w3.org/2000/svg"
   xmlns:svg="http://www.w3.org/2000/svg">
  <sodipodi:namedview
     id="namedview1"
     pagecolor="#ffffff"
     bordercolor="#000000"
     borderopacity="0.25"
     inkscape:showpageshadow="2"
     inkscape:pageopacity="0.0"
     inkscape:pagecheckerboard="0"
     inkscape:deskcolor="#d1d1d1"
     inkscape:document-units="mm"
     inkscape:zoom="1.6026445"
     inkscape:cx="511.34235"
     inkscape:cy="229.3085"
     inkscape:window-width="3840"
     inkscape:window-height="2054"
     inkscape:window-x="3840"
     inkscape:window-y="0"
     inkscape:window-maximized="1"
     inkscape:current-layer="layer1" />
  <defs
     id="defs1">
    <clipPath
       clipPathUnits="userSpaceOnUse"
       id="clipPath4588">
      <path
         d="M 0,0 H 14042.969 V 9933.0078 H 0 Z"
         transform="matrix(10.583032,0,0,10.583032,-2387.1772,59393.615)"
         clip-rule="evenodd"
         id="path4588" />
    </clipPath>
    <clipPath
       clipPathUnits="userSpaceOnUse"
       id="clipPath4420">
      <path
         d="M 0,0 H 14042.969 V 9933.0078 H 0 Z"
         transform="matrix(10.576121,0,0,10.576121,-1928.9545,60952.357)"
         clip-rule="evenodd"
         id="path4420" />
    </clipPath>
    <clipPath
       clipPathUnits="userSpaceOnUse"
       id="clipPath4420-4">
      <path
         d="M 0,0 H 14042.969 V 9933.0078 H 0 Z"
         transform="matrix(10.576121,0,0,10.576121,-1928.9545,60952.357)"
         clip-rule="evenodd"
         id="path4420-5" />
    </clipPath>
    <clipPath
       clipPathUnits="userSpaceOnUse"
       id="clipPath4420-4-7">
      <path
         d="M 0,0 H 14042.969 V 9933.0078 H 0 Z"
         transform="matrix(10.576121,0,0,10.576121,-1928.9545,60952.357)"
         clip-rule="evenodd"
         id="path4420-5-4" />
    </clipPath>
    <clipPath
       clipPathUnits="userSpaceOnUse"
       id="clipPath4420-4-8">
      <path
         d="M 0,0 H 14042.969 V 9933.0078 H 0 Z"
         transform="matrix(10.576121,0,0,10.576121,-1928.9545,60952.357)"
         clip-rule="evenodd"
         id="path4420-5-43" />
    </clipPath>
    <clipPath
       clipPathUnits="userSpaceOnUse"
       id="clipPath4432">
      <path
         d="M 0,0 H 14042.969 V 9933.0078 H 0 Z"
         transform="matrix(10.576121,0,0,10.576121,-20256.949,-21582.965)"
         clip-rule="evenodd"
         id="path4432" />
    </clipPath>
    <clipPath
       clipPathUnits="userSpaceOnUse"
       id="clipPath4430">
      <path
         d="M 0,0 H 14042.969 V 9933.0078 H 0 Z"
         transform="matrix(10.576121,0,0,10.576121,-15180.411,-18516.891)"
         clip-rule="evenodd"
         id="path4430" />
    </clipPath>
    <clipPath
       clipPathUnits="userSpaceOnUse"
       id="clipPath4428">
      <path
         d="M 0,0 H 14042.969 V 9933.0078 H 0 Z"
         transform="matrix(10.576121,0,0,10.576121,-10553.361,-18464.009)"
         clip-rule="evenodd"
         id="path4428" />
    </clipPath>
    <clipPath
       clipPathUnits="userSpaceOnUse"
       id="clipPath4422">
      <path
         d="M 0,0 H 14042.969 V 9933.0078 H 0 Z"
         transform="matrix(10.576121,0,0,10.576121,-6560.8757,-9499.7485)"
         clip-rule="evenodd"
         id="path4422" />
    </clipPath>
    <clipPath
       clipPathUnits="userSpaceOnUse"
       id="clipPath4424">
      <path
         d="M 0,0 H 14042.969 V 9933.0078 H 0 Z"
         transform="matrix(10.576121,0,0,10.576121,-14863.127,-9129.5836)"
         clip-rule="evenodd"
         id="path4424" />
    </clipPath>
    <clipPath
       clipPathUnits="userSpaceOnUse"
       id="clipPath4426">
      <path
         d="M 0,0 H 14042.969 V 9933.0078 H 0 Z"
         transform="matrix(10.576121,0,0,10.576121,-15127.53,-14100.359)"
         clip-rule="evenodd"
         id="path4426" />
    </clipPath>
    <clipPath
       clipPathUnits="userSpaceOnUse"
       id="clipPath4588-6">
      <path
         d="M 0,0 H 14042.969 V 9933.0078 H 0 Z"
         transform="matrix(10.583032,0,0,10.583032,-2387.1772,59393.615)"
         clip-rule="evenodd"
         id="path4588-4" />
    </clipPath>
    <clipPath
       clipPathUnits="userSpaceOnUse"
       id="clipPath4420-62">
      <path
         d="M 0,0 H 14042.969 V 9933.0078 H 0 Z"
         transform="matrix(10.576121,0,0,10.576121,-1928.9545,60952.357)"
         clip-rule="evenodd"
         id="path4420-58" />
    </clipPath>
    <clipPath
       clipPathUnits="userSpaceOnUse"
       id="clipPath4420-4-6">
      <path
         d="M 0,0 H 14042.969 V 9933.0078 H 0 Z"
         transform="matrix(10.576121,0,0,10.576121,-1928.9545,60952.357)"
         clip-rule="evenodd"
         id="path4420-5-2" />
    </clipPath>
    <clipPath
       clipPathUnits="userSpaceOnUse"
       id="clipPath4420-4-7-8">
      <path
         d="M 0,0 H 14042.969 V 9933.0078 H 0 Z"
         transform="matrix(10.576121,0,0,10.576121,-1928.9545,60952.357)"
         clip-rule="evenodd"
         id="path4420-5-4-4" />
    </clipPath>
    <clipPath
       clipPathUnits="userSpaceOnUse"
       id="clipPath4420-4-8-7">
      <path
         d="M 0,0 H 14042.969 V 9933.0078 H 0 Z"
         transform="matrix(10.576121,0,0,10.576121,-1928.9545,60952.357)"
         clip-rule="evenodd"
         id="path4420-5-43-2" />
    </clipPath>
    <clipPath
       clipPathUnits="userSpaceOnUse"
       id="clipPath4432-4">
      <path
         d="M 0,0 H 14042.969 V 9933.0078 H 0 Z"
         transform="matrix(10.576121,0,0,10.576121,-20256.949,-21582.965)"
         clip-rule="evenodd"
         id="path4432-0" />
    </clipPath>
    <clipPath
       clipPathUnits="userSpaceOnUse"
       id="clipPath4430-6">
      <path
         d="M 0,0 H 14042.969 V 9933.0078 H 0 Z"
         transform="matrix(10.576121,0,0,10.576121,-15180.411,-18516.891)"
         clip-rule="evenodd"
         id="path4430-29" />
    </clipPath>
    <clipPath
       clipPathUnits="userSpaceOnUse"
       id="clipPath4428-9">
      <path
         d="M 0,0 H 14042.969 V 9933.0078 H 0 Z"
         transform="matrix(10.576121,0,0,10.576121,-10553.361,-18464.009)"
         clip-rule="evenodd"
         id="path4428-0" />
    </clipPath>
    <clipPath
       clipPathUnits="userSpaceOnUse"
       id="clipPath4422-8">
      <path
         d="M 0,0 H 14042.969 V 9933.0078 H 0 Z"
         transform="matrix(10.576121,0,0,10.576121,-6560.8757,-9499.7485)"
         clip-rule="evenodd"
         id="path4422-1" />
    </clipPath>
    <clipPath
       clipPathUnits="userSpaceOnUse"
       id="clipPath4424-3">
      <path
         d="M 0,0 H 14042.969 V 9933.0078 H 0 Z"
         transform="matrix(10.576121,0,0,10.576121,-14863.127,-9129.5836)"
         clip-rule="evenodd"
         id="path4424-1" />
    </clipPath>
    <clipPath
       clipPathUnits="userSpaceOnUse"
       id="clipPath4426-1">
      <path
         d="M 0,0 H 14042.969 V 9933.0078 H 0 Z"
         transform="matrix(10.576121,0,0,10.576121,-15127.53,-14100.359)"
         clip-rule="evenodd"
         id="path4426-0" />
    </clipPath>
  </defs>
  <g
     inkscape:label="Layer 1"
     inkscape:groupmode="layer"
     id="layer1"
     transform="translate(30.162499,-87.841666)">
    <path
       id="path4587"
       d="M 3317,63307 H 22113 V 85420 H 3317 V 63307"
       style="fill:none;stroke:#000000;stroke-width:200;stroke-linecap:butt;stroke-linejoin:miter;stroke-miterlimit:10;stroke-dasharray:none;stroke-opacity:1"
       transform="matrix(0.00799544,0,0,0.00893312,-55.883829,-476.79405)"
       clip-path="url(#clipPath4588)" />
    <path
       id="path4419"
       d="m 11793,67174 -13,208 -39,204 -64,199 -89,189 -112,175 -132,161 -152,142 -168,122 -183,100 -193,77 -202,52 -207,26 h -208 l -207,-26 -201,-52 -194,-77 -182,-100 -169,-122 -151,-142 -133,-161 -111,-175 -89,-189 -64,-199 -39,-204 -13,-208 13,-208 39,-204 64,-198 89,-189 111,-176 133,-160 151,-143 169,-122 182,-100 194,-77 201,-52 207,-26 h 208 l 207,26 202,52 193,77 183,100 168,122 152,143 132,160 112,176 89,189 64,198 39,204 13,208"
       style="fill:none;stroke:#000000;stroke-width:200;stroke-linecap:butt;stroke-linejoin:miter;stroke-miterlimit:10;stroke-dasharray:none;stroke-opacity:1"
       transform="matrix(0.00800546,0,0,0.00800546,-40.11975,-431.38309)"
       clip-path="url(#clipPath4420)" />
    <path
       d="m 36.358607,105.53163 h -1.030084 v -0.49265 h 1.030084 v -0.26871 q 0,-0.6339 0.289388,-0.93363 0.292834,-0.29972 0.909506,-0.29972 h 0.761367 v 0.5271 h -0.720026 q -0.337619,0 -0.471978,0.14125 -0.134359,0.1378 -0.134359,0.49265 v 0.34106 h 1.326363 v 0.49265 h -1.326363 v 3.36586 h -0.633898 z m 4.221733,3.46577 q -1.174778,0 -1.174778,-1.56063 v -2.3909 h 0.633898 v 2.3909 q 0,1.00942 0.754476,1.00942 0.440973,0 0.68213,-0.31695 0.241157,-0.3204 0.241157,-0.90262 v -2.18075 h 0.637343 v 3.85162 h -0.575332 l -0.06201,-0.57877 q -0.34451,0.67868 -1.136884,0.67868 z m 2.805799,-3.95842 h 0.571886 l 0.06201,0.57878 q 0.347954,-0.67179 1.133437,-0.67179 1.181668,0 1.181668,1.56063 v 2.39089 h -0.637343 v -2.39089 q 0,-0.52021 -0.18259,-0.76482 -0.179145,-0.2446 -0.558106,-0.2446 -0.451308,0 -0.69591,0.3204 -0.241156,0.31694 -0.241156,0.89917 v 2.18074 h -0.633898 z"
       id="text1"
       style="font-size:7.05556px;font-family:'Hack Nerd Font';-inkscape-font-specification:'Hack Nerd Font';letter-spacing:-0.267229px;fill:#1a1a1a;stroke-width:0.264583"
       aria-label="fun" />
    <path
       id="path4419-6"
       d="m 11793,67174 -13,208 -39,204 -64,199 -89,189 -112,175 -132,161 -152,142 -168,122 -183,100 -193,77 -202,52 -207,26 h -208 l -207,-26 -201,-52 -194,-77 -182,-100 -169,-122 -151,-142 -133,-161 -111,-175 -89,-189 -64,-199 -39,-204 -13,-208 13,-208 39,-204 64,-198 89,-189 111,-176 133,-160 151,-143 169,-122 182,-100 194,-77 201,-52 207,-26 h 208 l 207,26 202,52 193,77 183,100 168,122 152,143 132,160 112,176 89,189 64,198 39,204 13,208"
       style="fill:#00a839;fill-opacity:1;stroke:#000000;stroke-width:200;stroke-linecap:butt;stroke-linejoin:miter;stroke-miterlimit:10;stroke-dasharray:none;stroke-opacity:1"
       transform="matrix(0.00800546,0,0,0.00800546,-4.111174,-352.80426)"
       clip-path="url(#clipPath4420-4)" />
    <path
       d="m 71.497295,183.72633 h 0.571886 l 0.06201,0.57877 q 0.347955,-0.67179 1.133437,-0.67179 1.181669,0 1.181669,1.56063 v 2.3909 h -0.637343 v -2.3909 q 0,-0.52021 -0.182591,-0.76481 -0.179145,-0.24461 -0.558105,-0.24461 -0.451308,0 -0.69591,0.3204 -0.241157,0.31695 -0.241157,0.89917 v 2.18075 h -0.633898 z m 5.668674,3.95841 q -0.73036,0 -1.06109,-0.58566 l -0.06201,0.48576 h -0.571887 v -5.36058 h 0.633898 v 1.99472 q 0.158475,-0.29973 0.437528,-0.44098 0.279053,-0.14469 0.627008,-0.14469 0.413411,0 0.695909,0.17914 0.282498,0.1757 0.451308,0.47198 0.172255,0.29284 0.244602,0.65113 0.07579,0.35829 0.07579,0.71658 0,0.36173 -0.07579,0.72347 -0.07579,0.35829 -0.248047,0.65457 -0.16881,0.29627 -0.451308,0.47542 -0.282498,0.17914 -0.695911,0.17914 z m -0.127468,-0.53743 q 0.303168,0 0.485759,-0.14125 0.186035,-0.14125 0.279053,-0.36863 0.09646,-0.22737 0.130913,-0.48575 0.03445,-0.25839 0.03445,-0.49265 0,-0.23427 -0.03445,-0.49265 -0.03445,-0.26183 -0.130913,-0.48576 -0.09302,-0.22738 -0.279053,-0.36863 -0.182591,-0.14125 -0.485759,-0.14125 -0.299724,0 -0.485759,0.14125 -0.18259,0.14125 -0.282498,0.36518 -0.09646,0.22394 -0.130914,0.48576 -0.03445,0.25839 -0.03445,0.49265 0,0.23771 0.03445,0.49954 0.03445,0.25838 0.130914,0.48576 0.09991,0.22393 0.282498,0.36518 0.186035,0.14125 0.485759,0.14125 z m 2.788573,-3.42098 h 0.575331 l 0.06201,0.75447 q 0.161919,-0.40996 0.485758,-0.627 0.327285,-0.22049 0.782038,-0.22049 0.475423,0 0.826823,0.24116 v 0.64767 q -0.372071,-0.30316 -0.881945,-0.30316 -0.585667,0 -0.899171,0.37551 -0.313503,0.37207 -0.313503,1.07143 v 1.91892 h -0.637343 z"
       id="text1-1"
       style="font-size:7.05556px;font-family:'Hack Nerd Font';-inkscape-font-specification:'Hack Nerd Font';letter-spacing:-0.267229px;fill:#1a1a1a;stroke-width:0.264583"
       aria-label="nbr" />
    <path
       id="path4419-6-0"
       d="m 11793,67174 -13,208 -39,204 -64,199 -89,189 -112,175 -132,161 -152,142 -168,122 -183,100 -193,77 -202,52 -207,26 h -208 l -207,-26 -201,-52 -194,-77 -182,-100 -169,-122 -151,-142 -133,-161 -111,-175 -89,-189 -64,-199 -39,-204 -13,-208 13,-208 39,-204 64,-198 89,-189 111,-176 133,-160 151,-143 169,-122 182,-100 194,-77 201,-52 207,-26 h 208 l 207,26 202,52 193,77 183,100 168,122 152,143 132,160 112,176 89,189 64,198 39,204 13,208"
       style="fill:#00a839;fill-opacity:1;stroke:#000000;stroke-width:200;stroke-linecap:butt;stroke-linejoin:miter;stroke-miterlimit:10;stroke-dasharray:none;stroke-opacity:1"
       transform="matrix(0.00800546,0,0,0.00800546,-52.428233,-277.79421)"
       clip-path="url(#clipPath4420-4-7)" />
    <path
       d="m 23.180236,258.73638 h 0.571886 l 0.06201,0.57878 q 0.347955,-0.6718 1.133438,-0.6718 1.181668,0 1.181668,1.56063 v 2.3909 h -0.637343 v -2.3909 q 0,-0.52021 -0.18259,-0.76481 -0.179146,-0.2446 -0.558106,-0.2446 -0.451308,0 -0.69591,0.32039 -0.241157,0.31695 -0.241157,0.89917 v 2.18075 h -0.633898 z m 5.668675,3.95842 q -0.730361,0 -1.061091,-0.58567 l -0.06201,0.48576 h -0.571887 v -5.36057 h 0.633898 v 1.99471 q 0.158475,-0.29972 0.437528,-0.44097 0.279053,-0.1447 0.627008,-0.1447 0.413411,0 0.695909,0.17915 0.282498,0.1757 0.451308,0.47198 0.172255,0.29283 0.244602,0.65112 0.07579,0.35829 0.07579,0.71658 0,0.36173 -0.07579,0.72347 -0.07579,0.35829 -0.248047,0.65457 -0.16881,0.29628 -0.451308,0.47542 -0.282498,0.17915 -0.69591,0.17915 z m -0.127469,-0.53744 q 0.303169,0 0.485759,-0.14125 0.186035,-0.14125 0.279053,-0.36862 0.09646,-0.22738 0.130913,-0.48576 0.03445,-0.25838 0.03445,-0.49265 0,-0.23427 -0.03445,-0.49265 -0.03445,-0.26183 -0.130913,-0.48576 -0.09302,-0.22737 -0.279053,-0.36862 -0.18259,-0.14125 -0.485759,-0.14125 -0.299724,0 -0.485759,0.14125 -0.18259,0.14125 -0.282498,0.36518 -0.09646,0.22393 -0.130914,0.48576 -0.03445,0.25838 -0.03445,0.49264 0,0.23772 0.03445,0.49954 0.03445,0.25839 0.130914,0.48576 0.09991,0.22393 0.282498,0.36518 0.186035,0.14125 0.485759,0.14125 z m 2.788573,-3.42098 h 0.575331 l 0.06201,0.75448 q 0.161919,-0.40997 0.485759,-0.62701 0.327284,-0.22049 0.782037,-0.22049 0.475423,0 0.826823,0.24116 v 0.64768 q -0.37207,-0.30317 -0.881945,-0.30317 -0.585666,0 -0.89917,0.37551 -0.313504,0.37208 -0.313504,1.07143 v 1.91892 h -0.637343 z"
       id="text1-1-7"
       style="font-size:7.05556px;font-family:'Hack Nerd Font';-inkscape-font-specification:'Hack Nerd Font';letter-spacing:-0.267229px;fill:#1a1a1a;stroke-width:0.264583"
       aria-label="nbr" />
    <path
       id="path4419-6-9"
       d="m 11793,67174 -13,208 -39,204 -64,199 -89,189 -112,175 -132,161 -152,142 -168,122 -183,100 -193,77 -202,52 -207,26 h -208 l -207,-26 -201,-52 -194,-77 -182,-100 -169,-122 -151,-142 -133,-161 -111,-175 -89,-189 -64,-199 -39,-204 -13,-208 13,-208 39,-204 64,-198 89,-189 111,-176 133,-160 151,-143 169,-122 182,-100 194,-77 201,-52 207,-26 h 208 l 207,26 202,52 193,77 183,100 168,122 152,143 132,160 112,176 89,189 64,198 39,204 13,208"
       style="fill:none;stroke:#000000;stroke-width:200;stroke-linecap:butt;stroke-linejoin:miter;stroke-miterlimit:10;stroke-dasharray:none;stroke-opacity:1"
       transform="matrix(0.00800546,0,0,0.00800546,-16.740986,-277.79421)"
       clip-path="url(#clipPath4420-4-8)" />
    <path
       d="m 58.867484,258.73637 h 0.571887 l 0.06201,0.57878 q 0.347955,-0.67179 1.133438,-0.67179 1.181668,0 1.181668,1.56063 v 2.39089 h -0.637343 v -2.39089 q 0,-0.52021 -0.18259,-0.76482 -0.179145,-0.2446 -0.558106,-0.2446 -0.451308,0 -0.69591,0.3204 -0.241157,0.31694 -0.241157,0.89917 v 2.18074 h -0.633898 z m 5.668675,3.95842 q -0.730361,0 -1.06109,-0.58567 l -0.06201,0.48576 h -0.571886 v -5.36057 h 0.633898 v 1.99471 q 0.158474,-0.29972 0.437527,-0.44097 0.279053,-0.14469 0.627008,-0.14469 0.413412,0 0.69591,0.17914 0.282498,0.1757 0.451307,0.47198 0.172255,0.29283 0.244602,0.65112 0.07579,0.35829 0.07579,0.71658 0,0.36174 -0.07579,0.72347 -0.07579,0.35829 -0.248047,0.65457 -0.168809,0.29628 -0.451307,0.47543 -0.282498,0.17914 -0.69591,0.17914 z m -0.127469,-0.53743 q 0.303169,0 0.485759,-0.14125 0.186035,-0.14125 0.279053,-0.36863 0.09646,-0.22737 0.130914,-0.48576 0.03445,-0.25838 0.03445,-0.49265 0,-0.23426 -0.03445,-0.49265 -0.03445,-0.26182 -0.130914,-0.48575 -0.09302,-0.22738 -0.279053,-0.36863 -0.18259,-0.14125 -0.485759,-0.14125 -0.299723,0 -0.485759,0.14125 -0.18259,0.14125 -0.282498,0.36518 -0.09646,0.22393 -0.130913,0.48576 -0.03445,0.25838 -0.03445,0.49265 0,0.23771 0.03445,0.49954 0.03445,0.25838 0.130913,0.48576 0.09991,0.22393 0.282498,0.36518 0.186036,0.14125 0.485759,0.14125 z m 2.788573,-3.42099 h 0.575331 l 0.06201,0.75448 q 0.16192,-0.40997 0.485759,-0.62701 0.327284,-0.22048 0.782037,-0.22048 0.475423,0 0.826823,0.24115 v 0.64768 q -0.37207,-0.30317 -0.881945,-0.30317 -0.585666,0 -0.89917,0.37552 -0.313504,0.37207 -0.313504,1.07142 v 1.91892 h -0.637341 z"
       id="text1-1-2"
       style="font-size:7.05556px;font-family:'Hack Nerd Font';-inkscape-font-specification:'Hack Nerd Font';letter-spacing:-0.267229px;fill:#1a1a1a;stroke-width:0.264583"
       aria-label="nbr" />
    <path
       id="path4431"
       d="m 3433,1772 -13,208 -39,204 -64,199 -89,189 -112,175 -132,161 -152,142 -168,122 -183,100 -193,77 -202,52 -207,26 h -208 l -207,-26 -201,-52 -194,-77 L 887,3172 718,3050 567,2908 434,2747 323,2572 234,2383 170,2184 131,1980 118,1772 131,1564 170,1360 234,1162 323,973 434,797 567,637 718,494 887,372 l 182,-100 194,-77 201,-52 207,-26 h 208 l 207,26 202,52 193,77 183,100 168,122 152,143 132,160 112,176 89,189 64,198 39,204 13,208"
       style="fill:none;stroke:#000000;stroke-width:200;stroke-linecap:butt;stroke-linejoin:miter;stroke-miterlimit:10;stroke-dasharray:none;stroke-opacity:1"
       transform="matrix(0.00800546,0,0,0.00800546,50.18466,206.73219)"
       clip-path="url(#clipPath4432)" />
    <path
       d="m 58.630912,223.64811 q -0.89228,0 -1.402155,-0.53399 -0.506429,-0.53744 -0.506429,-1.46417 0,-0.57533 0.199816,-1.04042 0.203261,-0.46509 0.599447,-0.73725 0.399631,-0.27561 0.985298,-0.27561 0.771702,0 1.195449,0.4961 0.427192,0.49265 0.427192,1.3677 v 0.31006 h -2.745743 v 0.0207 q 0,0.60289 0.316949,0.96118 0.316949,0.35829 0.937066,0.35829 0.358291,0 0.692465,-0.11369 0.33762,-0.11368 0.651124,-0.2756 v 0.63045 q -0.327285,0.13436 -0.664904,0.2136 -0.334175,0.0827 -0.685575,0.0827 z m 0.86472,-2.37367 q 0,-0.3204 -0.09646,-0.57878 -0.09646,-0.25838 -0.310059,-0.40997 -0.210151,-0.15158 -0.558106,-0.15158 -0.3514,0 -0.589111,0.15503 -0.234267,0.15158 -0.368626,0.40996 -0.130913,0.25839 -0.165364,0.57534 z m 3.608506,2.30132 q -0.568441,0 -0.881945,-0.36518 -0.310059,-0.36862 -0.310059,-1.03353 v -3.49333 H 60.89583 v -0.49609 h 1.650202 v 3.98942 q 0,0.4203 0.158474,0.64079 0.158475,0.22049 0.461643,0.22049 h 0.740697 v 0.53743 z m 3.181314,0.0724 q -0.551216,0 -1.295357,-0.24116 v -0.65457 q 0.72347,0.36518 1.288466,0.36518 0.403077,0 0.644234,-0.16881 0.241157,-0.16881 0.241157,-0.4513 0,-0.24461 -0.203261,-0.39275 -0.199816,-0.15158 -0.640788,-0.2446 l -0.265273,-0.0551 q -0.544325,-0.11024 -0.799263,-0.36173 -0.251492,-0.25494 -0.251492,-0.69247 0,-0.55466 0.378961,-0.85438 0.378961,-0.29973 1.078316,-0.29973 0.592556,0 1.147217,0.22738 v 0.62012 q -0.54088,-0.31695 -1.129992,-0.31695 -0.833714,0 -0.833714,0.56844 0,0.18603 0.07235,0.29628 0.07235,0.1068 0.275608,0.18259 0.203261,0.0723 0.599447,0.15158 l 0.254938,0.0482 q 0.957737,0.18948 0.957737,1.04387 0,0.57188 -0.406522,0.90261 -0.406521,0.32729 -1.112766,0.32729 z m 4.28719,0 q -0.892281,0 -1.402155,-0.53399 -0.506429,-0.53744 -0.506429,-1.46417 0,-0.57533 0.199815,-1.04042 0.203261,-0.46509 0.599447,-0.73725 0.399632,-0.27561 0.985298,-0.27561 0.771702,0 1.195449,0.4961 0.427192,0.49265 0.427192,1.3677 v 0.31006 h -2.745743 v 0.0207 q 0,0.60289 0.316949,0.96118 0.316949,0.35829 0.937067,0.35829 0.35829,0 0.692465,-0.11369 0.337619,-0.11368 0.651123,-0.2756 v 0.63045 q -0.327284,0.13436 -0.664904,0.2136 -0.334174,0.0827 -0.685574,0.0827 z m 0.864719,-2.37367 q 0,-0.3204 -0.09646,-0.57878 -0.09646,-0.25838 -0.310059,-0.40997 -0.210151,-0.15158 -0.558106,-0.15158 -0.3514,0 -0.589112,0.15503 -0.234266,0.15158 -0.368625,0.40996 -0.130914,0.25839 -0.165365,0.57534 z"
       id="text1-1-6"
       style="font-size:7.05556px;font-family:'Hack Nerd Font';-inkscape-font-specification:'Hack Nerd Font';letter-spacing:-0.267229px;fill:#1a1a1a;stroke-width:0.264583"
       aria-label="else" />
    <path
       id="path4429"
       d="m 3433,1771 -13,208 -39,204 -64,199 -89,189 -112,175 -132,161 -152,142 -168,122 -183,100 -193,77 -202,52 -207,26 h -208 l -207,-26 -201,-52 -194,-77 L 887,3171 718,3049 567,2907 434,2746 323,2571 234,2382 170,2183 131,1979 118,1771 131,1563 170,1359 234,1161 323,972 434,796 567,636 718,493 887,371 l 182,-100 194,-77 201,-52 207,-26 h 208 l 207,26 202,52 193,77 183,100 168,122 152,143 132,160 112,176 89,189 64,198 39,204 13,208"
       style="fill:none;stroke:#000000;stroke-width:200;stroke-linecap:butt;stroke-linejoin:miter;stroke-miterlimit:10;stroke-dasharray:none;stroke-opacity:1"
       transform="matrix(0.00800546,0,0,0.00800546,14.497413,206.12517)"
       clip-path="url(#clipPath4430)" />
    <path
       d="m 23.484383,222.94696 q -0.70969,0 -1.005968,-0.28594 -0.292834,-0.28939 -0.292834,-0.9853 v -2.1084 h -1.030084 v -0.49265 h 1.030084 v -1.00941 l 0.633898,-0.27561 v 1.28502 h 1.440051 v 0.49265 h -1.440051 v 2.1084 q 0,0.42375 0.16192,0.596 0.161919,0.16881 0.564996,0.16881 h 0.713135 v 0.50643 z m 1.872177,-5.37435 h 0.633898 v 2.08084 q 0.347955,-0.6718 1.140327,-0.6718 0.475424,0 0.726916,0.22049 0.254937,0.22048 0.3514,0.57533 0.09646,0.35484 0.09646,0.76481 v 2.3909 h -0.637344 v -2.3909 q 0,-0.52021 -0.18259,-0.76481 -0.18259,-0.2446 -0.568441,-0.2446 -0.35829,0 -0.561551,0.17914 -0.199815,0.1757 -0.282498,0.45476 -0.08268,0.27905 -0.08268,0.58566 v 2.18075 h -0.633898 z m 5.644559,5.46048 q -0.892281,0 -1.402155,-0.53399 -0.50643,-0.53744 -0.50643,-1.46417 0,-0.57533 0.199816,-1.04042 0.203261,-0.46509 0.599447,-0.73725 0.399631,-0.27561 0.985298,-0.27561 0.771702,0 1.195449,0.4961 0.427192,0.49265 0.427192,1.3677 v 0.31006 h -2.745743 v 0.0207 q 0,0.60289 0.316949,0.96118 0.316949,0.35829 0.937067,0.35829 0.35829,0 0.692464,-0.11369 0.33762,-0.11368 0.651124,-0.2756 v 0.63045 q -0.327284,0.13436 -0.664904,0.21359 -0.334174,0.0827 -0.685574,0.0827 z m 0.864719,-2.37368 q 0,-0.32039 -0.09646,-0.57877 -0.09646,-0.25838 -0.310058,-0.40997 -0.210151,-0.15158 -0.558106,-0.15158 -0.3514,0 -0.589112,0.15503 -0.234267,0.15158 -0.368625,0.40996 -0.130914,0.25839 -0.165365,0.57533 z m 1.451875,-1.58474 h 0.571886 l 0.06201,0.57878 q 0.347955,-0.6718 1.133437,-0.6718 1.181669,0 1.181669,1.56063 v 2.3909 h -0.637342 v -2.3909 q 0,-0.52021 -0.18259,-0.76481 -0.179145,-0.2446 -0.558106,-0.2446 -0.451307,0 -0.695909,0.32039 -0.241157,0.31695 -0.241157,0.89917 v 2.18075 h -0.633898 z"
       id="text1-1-65"
       style="font-size:7.05556px;font-family:'Hack Nerd Font';-inkscape-font-specification:'Hack Nerd Font';letter-spacing:-0.267229px;fill:#1a1a1a;stroke-width:0.264583"
       aria-label="then" />
    <path
       id="path4427"
       d="m 3433,1771 -13,208 -39,204 -64,199 -89,189 -112,175 -132,161 -152,142 -168,122 -183,100 -193,77 -202,52 -207,26 h -208 l -207,-26 -201,-52 -194,-77 L 887,3171 718,3049 567,2907 434,2746 323,2571 234,2382 170,2183 131,1979 118,1771 131,1563 170,1359 234,1161 323,972 434,796 567,636 718,493 887,371 l 182,-100 194,-77 201,-52 207,-26 h 208 l 207,26 202,52 193,77 183,100 168,122 152,143 132,160 112,176 89,189 64,198 39,204 13,208"
       style="fill:none;stroke:#000000;stroke-width:200;stroke-linecap:butt;stroke-linejoin:miter;stroke-miterlimit:10;stroke-dasharray:none;stroke-opacity:1"
       transform="matrix(0.00800546,0,0,0.00800546,-22.544227,205.70183)"
       clip-path="url(#clipPath4428)" />
    <path
       d="m -13.949997,222.60973 q -0.609783,0 -1.02664,-0.25494 -0.413411,-0.25838 -0.627007,-0.71658 -0.210151,-0.45819 -0.210151,-1.0542 0,-0.59944 0.213596,-1.0542 0.213596,-0.45819 0.630453,-0.71313 0.416856,-0.25838 1.033529,-0.25838 0.320394,0 0.578776,0.0758 0.258383,0.0724 0.5271,0.22049 v 0.6649 q -0.244602,-0.21704 -0.492649,-0.32039 -0.244602,-0.10336 -0.558105,-0.10336 -0.465089,0 -0.744142,0.19982 -0.275607,0.19981 -0.399631,0.53743 -0.120578,0.33762 -0.120578,0.75103 0,0.40997 0.124023,0.75104 0.124024,0.33762 0.399632,0.53743 0.275607,0.19982 0.73725,0.19982 0.303169,0 0.564996,-0.0999 0.261828,-0.0999 0.489204,-0.31695 v 0.65801 q -0.492649,0.29628 -1.119656,0.29628 z m 3.680853,0 q -0.806153,0 -1.233345,-0.52021 -0.423747,-0.52365 -0.423747,-1.50206 0,-0.98185 0.427192,-1.50551 0.427192,-0.52365 1.226454,-0.52365 0.799263,0 1.22301,0.52365 0.427192,0.52021 0.427192,1.50895 0,0.98186 -0.423747,1.50207 -0.423747,0.51676 -1.223009,0.51676 z m -0.0034,-0.53743 q 0.471979,0 0.723471,-0.38585 0.254937,-0.38586 0.254937,-1.10588 0,-0.71658 -0.254937,-1.09899 -0.251492,-0.38585 -0.723471,-0.38585 -0.475423,0 -0.73036,0.38585 -0.251492,0.38241 -0.251492,1.09899 0,0.72002 0.254937,1.10588 0.254937,0.38585 0.726915,0.38585 z m 2.526746,-3.42099 h 0.571886 l 0.06201,0.57878 q 0.347955,-0.67179 1.133437,-0.67179 1.181668,0 1.181668,1.56063 v 2.39089 H -5.43414 v -2.39089 q 0,-0.52021 -0.18259,-0.76482 -0.179145,-0.2446 -0.558106,-0.2446 -0.451307,0 -0.695909,0.3204 -0.241157,0.31695 -0.241157,0.89917 v 2.18074 H -7.7458 Z m 5.217366,3.95842 q -0.420302,0 -0.706245,-0.17914 -0.285943,-0.17915 -0.458198,-0.47887 -0.168809,-0.29973 -0.244602,-0.66146 -0.07579,-0.36518 -0.07579,-0.73381 0,-0.92328 0.403077,-1.46072 0.406521,-0.53743 1.095541,-0.53743 0.337619,0 0.606337,0.14469 0.268718,0.14125 0.427192,0.44097 v -1.99471 h 0.633898 v 5.36057 h -0.571886 l -0.06201,-0.48575 q -0.341065,0.58566 -1.04731,0.58566 z m 0.113689,-0.53743 q 0.299723,0 0.482313,-0.14125 0.186036,-0.14125 0.282498,-0.36518 0.09991,-0.22738 0.134359,-0.48576 0.03445,-0.26183 0.03445,-0.49954 0,-0.23427 -0.03445,-0.49265 -0.03445,-0.25838 -0.134359,-0.48231 -0.09646,-0.22738 -0.282498,-0.36863 -0.18259,-0.14125 -0.482313,-0.14125 -0.303169,0 -0.489204,0.14125 -0.18259,0.14125 -0.279053,0.36863 -0.09302,0.22393 -0.127469,0.48231 -0.03445,0.25838 -0.03445,0.49265 0,0.23427 0.03445,0.49609 0.03445,0.25839 0.127469,0.48576 0.09646,0.22393 0.279053,0.36863 0.186035,0.14125 0.489204,0.14125 z"
       id="text1-1-5"
       style="font-size:7.05556px;font-family:'Hack Nerd Font';-inkscape-font-specification:'Hack Nerd Font';letter-spacing:-0.267229px;fill:#1a1a1a;stroke-width:0.264583"
       aria-label="cond" />
    <path
       id="path4421"
       d="m 3433,1772 -13,208 -39,204 -64,199 -89,189 -112,175 -132,161 -152,142 -168,122 -183,100 -193,77 -202,52 -207,26 h -208 l -207,-26 -201,-52 -194,-77 L 887,3172 718,3050 567,2908 434,2747 323,2572 234,2383 170,2184 131,1980 118,1772 131,1564 170,1360 234,1162 323,973 434,797 567,637 718,494 887,372 l 182,-100 194,-77 201,-52 207,-26 h 208 l 207,26 202,52 193,77 183,100 168,122 152,143 132,160 112,176 89,189 64,198 39,204 13,208"
       style="fill:none;stroke:#000000;stroke-width:200;stroke-linecap:butt;stroke-linejoin:miter;stroke-miterlimit:10;stroke-dasharray:none;stroke-opacity:1"
       transform="matrix(0.00800546,0,0,0.00800546,0.427815,129.48136)"
       clip-path="url(#clipPath4422)" />
    <path
       d="m 8.2951288,145.62729 q -0.5581059,0 -0.9232862,-0.32039 -0.3617353,-0.32384 -0.3617353,-0.92673 0,-0.49954 0.2411569,-0.77859 0.2411568,-0.2825 0.6304528,-0.39619 0.3892961,-0.11369 0.8302686,-0.11369 h 0.8509391 v -0.0999 q 0,-0.49265 -0.2514921,-0.68557 -0.248047,-0.19293 -0.6993548,-0.19293 -0.3514,0 -0.6890196,0.0965 -0.3376196,0.0965 -0.6304529,0.26872 v -0.6339 q 0.316949,-0.11713 0.6407882,-0.19292 0.3238392,-0.0758 0.6614588,-0.0758 0.3445097,0 0.6683489,0.0965 0.3272843,0.093 0.564996,0.31006 0.2377118,0.21359 0.3169488,0.57533 0.05512,0.25493 0.05512,0.76825 v 0.78893 q 0,0.32384 0.03445,0.71658 0.0379,0.39274 0.16881,0.69591 H 9.7661859 q -0.058567,-0.13436 -0.093018,-0.28594 -0.034451,-0.15503 -0.055122,-0.29973 -0.2032608,0.34796 -0.564996,0.51677 -0.3582902,0.16881 -0.7579215,0.16881 z m 0.1550294,-0.53054 q 0.3927411,0 0.637343,-0.19293 0.2480471,-0.19292 0.3617353,-0.50298 0.1136882,-0.3135 0.1136882,-0.67179 V 143.5878 H 8.760217 q -0.2687177,0 -0.5271,0.062 -0.2549372,0.0586 -0.423747,0.22737 -0.1653647,0.16881 -0.1653647,0.49265 0,0.36518 0.2239313,0.54777 0.2239314,0.17915 0.5822216,0.17915 z m 3.1124118,-3.42787 h 0.575331 l 0.06201,0.75447 q 0.16192,-0.40996 0.485759,-0.627 0.327285,-0.22049 0.782037,-0.22049 0.475424,0 0.826824,0.24116 v 0.64767 q -0.372071,-0.30316 -0.881945,-0.30316 -0.585667,0 -0.899171,0.37551 -0.313504,0.37207 -0.313504,1.07143 v 1.91892 H 11.56257 Z m 5.003771,5.37435 q -0.279053,0 -0.561551,-0.0517 -0.279053,-0.0517 -0.551216,-0.1378 v -0.62701 q 0.261827,0.12402 0.551216,0.21704 0.292833,0.093 0.596002,0.093 0.37207,0 0.578776,-0.14814 0.206706,-0.14814 0.289388,-0.41341 0.08613,-0.26183 0.08613,-0.60289 v -0.4582 q -0.155029,0.33073 -0.420302,0.48576 -0.265272,0.15503 -0.623562,0.15503 -0.409967,0 -0.69591,-0.1757 -0.285943,-0.1757 -0.461643,-0.46509 -0.172255,-0.29283 -0.251492,-0.64423 -0.07924,-0.35485 -0.07924,-0.70625 0,-0.3514 0.07924,-0.7028 0.07924,-0.3514 0.254937,-0.64079 0.1757,-0.29283 0.461643,-0.46853 0.289388,-0.1757 0.7028,-0.1757 0.347955,0 0.606337,0.14469 0.258382,0.1447 0.427192,0.46165 l 0.06201,-0.49954 h 0.571886 v 3.59668 q 0,0.8096 -0.385851,1.28502 -0.382405,0.47887 -1.236789,0.47887 z m 0.07235,-2.01538 q 0.451307,0 0.682129,-0.37552 0.234267,-0.37551 0.234267,-1.09209 0,-0.23083 -0.03445,-0.48232 -0.03445,-0.25149 -0.130914,-0.46853 -0.09302,-0.22049 -0.275608,-0.35829 -0.18259,-0.13781 -0.478869,-0.13781 -0.458198,0 -0.702799,0.36519 -0.241157,0.36518 -0.241157,1.07487 0,0.71658 0.248047,1.09554 0.248047,0.37896 0.699355,0.37896 z m 3.966796,0.59944 q -0.826824,0 -1.243681,-0.67523 -0.420301,-0.67869 -0.420301,-1.99127 0,-1.31603 0.420301,-1.99471 0.416857,-0.67524 1.243681,-0.67524 0.826823,0 1.247125,0.67524 0.206706,0.33073 0.313504,0.82682 0.106798,0.49265 0.106798,1.16789 0,0.67524 -0.106798,1.16789 -0.106798,0.49265 -0.313504,0.82338 -0.423747,0.67524 -1.247125,0.67523 z m 0,-0.55121 q 0.492649,0 0.73036,-0.52366 0.237712,-0.52021 0.237712,-1.59163 0,-1.07487 -0.237712,-1.59164 -0.237711,-0.5271 -0.73036,-0.5271 -0.485759,0 -0.723471,0.52366 -0.120578,0.25838 -0.18259,0.65112 -0.05857,0.3893 -0.05857,0.94396 0,1.07831 0.241157,1.59163 0.241157,0.52366 0.723471,0.52366 z m 0.0069,-0.91295 q -0.110243,0 -0.172255,-0.14814 -0.05857,-0.14814 -0.09991,-0.34796 -0.03445,-0.15847 -0.05857,-0.3824 -0.02067,-0.22393 -0.02067,-0.34107 0,-0.0827 0.01378,-0.29628 0.01378,-0.21359 0.05512,-0.40307 0.09991,-0.49265 0.268718,-0.49265 0.09646,0 0.161919,0.13091 0.0689,0.13092 0.117133,0.37207 0.03445,0.17226 0.05512,0.38585 0.02067,0.2136 0.02067,0.33073 0,0.0689 -0.01378,0.27217 -0.01034,0.20326 -0.04479,0.41685 -0.08613,0.50299 -0.282498,0.50299 z"
       id="text1-2"
       style="font-size:7.05556px;font-family:'Hack Nerd Font';-inkscape-font-specification:'Hack Nerd Font';letter-spacing:-0.267229px;fill:#1a1a1a;stroke-width:0.264583"
       aria-label="arg0" />
    <path
       id="path4423"
       d="m 3433,1772 -13,208 -39,204 -64,199 -89,189 -112,175 -132,161 -152,142 -168,122 -183,100 -193,77 -202,52 -207,26 h -208 l -207,-26 -201,-52 -194,-77 L 887,3172 718,3050 567,2908 434,2747 323,2572 234,2383 170,2184 131,1980 118,1772 131,1564 170,1360 234,1162 323,973 434,797 567,637 718,494 887,372 l 182,-100 194,-77 201,-52 207,-26 h 208 l 207,26 202,52 193,77 183,100 168,122 152,143 132,160 112,176 89,189 64,198 39,204 13,208"
       style="fill:none;stroke:#000000;stroke-width:200;stroke-linecap:butt;stroke-linejoin:miter;stroke-miterlimit:10;stroke-dasharray:none;stroke-opacity:1"
       transform="matrix(0.00800546,0,0,0.00800546,43.943372,130.48022)"
       clip-path="url(#clipPath4424)" />
    <path
       d="m 52.227542,146.71229 q -0.730361,0 -1.061091,-0.58567 l -0.06201,0.48576 h -0.571888 v -5.36057 h 0.633898 v 1.99471 q 0.158475,-0.29973 0.437528,-0.44097 0.279053,-0.1447 0.627008,-0.1447 0.413411,0 0.695909,0.17915 0.282498,0.1757 0.451308,0.47197 0.172255,0.29284 0.244602,0.65113 0.07579,0.35829 0.07579,0.71658 0,0.36173 -0.07579,0.72347 -0.07579,0.35829 -0.248047,0.65457 -0.16881,0.29628 -0.451308,0.47542 -0.282498,0.17915 -0.695909,0.17915 z m -0.127469,-0.53744 q 0.303168,0 0.485759,-0.14125 0.186035,-0.14125 0.279053,-0.36862 0.09646,-0.22738 0.130913,-0.48576 0.03445,-0.25838 0.03445,-0.49265 0,-0.23427 -0.03445,-0.49265 -0.03445,-0.26183 -0.130913,-0.48576 -0.09302,-0.22738 -0.279053,-0.36862 -0.182591,-0.14125 -0.485759,-0.14125 -0.299724,0 -0.485759,0.14125 -0.18259,0.14124 -0.282498,0.36518 -0.09646,0.22393 -0.130914,0.48575 -0.03445,0.25839 -0.03445,0.49265 0,0.23772 0.03445,0.49954 0.03445,0.25838 0.130914,0.48576 0.09991,0.22393 0.282498,0.36518 0.186035,0.14125 0.485759,0.14125 z m 3.877223,0.53744 q -0.806152,0 -1.233344,-0.52021 -0.423748,-0.52366 -0.423748,-1.50207 0,-0.98185 0.427193,-1.5055 0.427192,-0.52366 1.226454,-0.52366 0.799263,0 1.22301,0.52366 0.427192,0.52021 0.427192,1.50895 0,0.98185 -0.423747,1.50206 -0.423747,0.51677 -1.22301,0.51677 z m -0.0034,-0.53744 q 0.471979,0 0.723471,-0.38585 0.254937,-0.38585 0.254937,-1.10588 0,-0.71658 -0.254937,-1.09898 -0.251492,-0.38585 -0.723471,-0.38585 -0.475423,0 -0.73036,0.38585 -0.251492,0.3824 -0.251492,1.09898 0,0.72003 0.254937,1.10588 0.254937,0.38585 0.726915,0.38585 z m 3.763536,0.53744 q -0.420302,0 -0.706245,-0.17915 -0.285943,-0.17914 -0.458198,-0.47887 -0.16881,-0.29972 -0.244602,-0.66146 -0.07579,-0.36518 -0.07579,-0.7338 0,-0.92329 0.403076,-1.46072 0.406522,-0.53744 1.095541,-0.53744 0.33762,0 0.606337,0.1447 0.268718,0.14124 0.427192,0.44097 v -1.99471 h 0.633898 v 5.36057 h -0.571886 l -0.06201,-0.48576 q -0.341064,0.58567 -1.047309,0.58567 z m 0.113688,-0.53744 q 0.299723,0 0.482314,-0.14125 0.186035,-0.14125 0.282498,-0.36518 0.09991,-0.22738 0.134358,-0.48576 0.03445,-0.26182 0.03445,-0.49954 0,-0.23426 -0.03445,-0.49265 -0.03445,-0.25838 -0.134358,-0.48231 -0.09646,-0.22738 -0.282498,-0.36862 -0.182591,-0.14125 -0.482314,-0.14125 -0.303169,0 -0.489204,0.14125 -0.18259,0.14124 -0.279053,0.36862 -0.09302,0.22393 -0.127468,0.48231 -0.03445,0.25839 -0.03445,0.49265 0,0.23427 0.03445,0.4961 0.03445,0.25838 0.127468,0.48576 0.09646,0.22393 0.279053,0.36862 0.186035,0.14125 0.489204,0.14125 z m 2.592202,1.37459 h 0.375516 q 0.279053,0 0.430637,-0.15847 0.16881,-0.1757 0.409967,-0.8406 l -1.491728,-3.7965 h 0.671794 l 1.143773,3.0179 1.126547,-3.0179 h 0.671794 l -1.016304,2.61827 q -0.120578,0.31006 -0.210151,0.54088 -0.02756,0.0689 -0.04479,0.11025 -0.01378,0.0379 -0.0379,0.0999 -0.02067,0.062 -0.0689,0.19981 l -0.04134,0.11024 q -0.134359,0.37552 -0.254938,0.65802 -0.117133,0.28594 -0.199815,0.43064 -0.310059,0.5581 -0.954292,0.5581 h -0.509875 z"
       id="text1-6"
       style="font-size:7.05556px;font-family:'Hack Nerd Font';-inkscape-font-specification:'Hack Nerd Font';letter-spacing:-0.267229px;fill:#1a1a1a;stroke-width:0.264583"
       aria-label="body" />
    <path
       id="path4425"
       d="m 3433,1772 -13,208 -39,204 -64,199 -89,189 -112,175 -132,161 -152,142 -168,122 -183,100 -193,77 -202,52 -207,26 h -208 l -207,-26 -201,-52 -194,-77 L 887,3172 718,3050 567,2908 434,2747 323,2572 234,2383 170,2184 131,1980 118,1772 131,1564 170,1360 234,1162 323,973 434,797 567,637 718,494 887,372 l 182,-100 194,-77 201,-52 207,-26 h 208 l 207,26 202,52 193,77 183,100 168,122 152,143 132,160 112,176 89,189 64,198 39,204 13,208"
       style="fill:none;stroke:#000000;stroke-width:200;stroke-linecap:butt;stroke-linejoin:miter;stroke-miterlimit:10;stroke-dasharray:none;stroke-opacity:1"
       transform="matrix(0.00800546,0,0,0.00800546,14.07408,170.76883)"
       clip-path="url(#clipPath4426)" />
    <path
       d="m 25.85323,183.06314 q -0.103353,0 -0.103353,-0.10335 v -0.596 q 0,-0.10335 0.103353,-0.10335 h 0.496094 q 0.103353,0 0.103353,0.10335 v 0.596 q 0,0.10335 -0.103353,0.10335 z m 1.157553,4.58543 q -0.568442,0 -0.881945,-0.36518 -0.310059,-0.36863 -0.310059,-1.03353 v -1.99127 H 24.97473 v -0.49609 h 1.477947 v 2.48736 q 0,0.4203 0.158474,0.64079 0.158475,0.22048 0.461643,0.22048 h 0.740696 v 0.53744 z m 2.626653,-3.39342 h -1.030085 v -0.49265 h 1.030085 v -0.26872 q 0,-0.6339 0.289388,-0.93362 0.292833,-0.29972 0.909506,-0.29972 h 0.761366 v 0.5271 h -0.720025 q -0.33762,0 -0.471979,0.14124 -0.134358,0.13781 -0.134358,0.49265 v 0.34107 h 1.326362 v 0.49265 h -1.326362 v 3.36586 h -0.633898 z"
       id="text1-9"
       style="font-size:7.05556px;font-family:'Hack Nerd Font';-inkscape-font-specification:'Hack Nerd Font';letter-spacing:-0.267229px;fill:#1a1a1a;stroke-width:0.264583"
       aria-label="if" />
    <path
       style="fill:none;fill-rule:evenodd;stroke:#000000;stroke-width:0.264583px;stroke-linecap:butt;stroke-linejoin:miter;stroke-opacity:1"
       d="M 33.230276,117.09499 22.236223,132.80932"
       id="path13" />
    <path
       style="fill:none;fill-rule:evenodd;stroke:#000000;stroke-width:0.264583px;stroke-linecap:butt;stroke-linejoin:miter;stroke-opacity:1"
       d="m 46.434166,118.47694 6.304649,14.08646"
       id="path14" />
    <path
       style="fill:none;fill-rule:evenodd;stroke:#000000;stroke-width:0.264583px;stroke-linecap:butt;stroke-linejoin:miter;stroke-opacity:1"
       d="M 36.177248,174.31084 50.263947,155.31027"
       id="path15" />
    <path
       style="fill:none;fill-rule:evenodd;stroke:#000000;stroke-width:0.264583px;stroke-linecap:butt;stroke-linejoin:miter;stroke-opacity:1"
       d="M 1.268842,210.72253 18.682617,194.11401"
       id="path17" />
    <path
       style="fill:none;fill-rule:evenodd;stroke:#000000;stroke-width:0.264583px;stroke-linecap:butt;stroke-linejoin:miter;stroke-opacity:1"
       d="M 55.005496,211.56485 37.6813,194.31129"
       id="path19" />
    <path
       style="fill:none;fill-rule:evenodd;stroke:#000000;stroke-width:0.264583px;stroke-linecap:butt;stroke-linejoin:miter;stroke-opacity:1"
       d="M 28.709546,247.64835 V 233.55188"
       id="path20" />
    <path
       style="fill:none;fill-rule:evenodd;stroke:#000000;stroke-width:0.214795px;stroke-linecap:butt;stroke-linejoin:miter;stroke-opacity:1"
       d="M 64.396794,245.91498 V 234.1669"
       id="path21" />
    <path
       style="fill:none;fill-rule:evenodd;stroke:#000000;stroke-width:0.264583px;stroke-linecap:butt;stroke-linejoin:miter;stroke-opacity:1"
       d="m 63.784021,156.68242 7.61332,16.25396"
       id="path22" />
    <path
       style="fill:none;fill-rule:evenodd;stroke:#000000;stroke-width:0.264583px;stroke-linecap:butt;stroke-linejoin:miter;stroke-opacity:1"
       d="m 28.444884,198.20354 0.105991,8.85026"
       id="path23" />
    <path
       id="path4587-0"
       d="M 3317,63307 H 22113 V 85420 H 3317 V 63307"
       style="fill:none;stroke:#000000;stroke-width:200;stroke-linecap:butt;stroke-linejoin:miter;stroke-miterlimit:10;stroke-dasharray:none;stroke-opacity:1"
       transform="matrix(0.00799544,0,0,0.00893312,97.725771,-476.79405)"
       clip-path="url(#clipPath4588-6)" />
    <path
       id="path4419-9"
       d="m 11793,67174 -13,208 -39,204 -64,199 -89,189 -112,175 -132,161 -152,142 -168,122 -183,100 -193,77 -202,52 -207,26 h -208 l -207,-26 -201,-52 -194,-77 -182,-100 -169,-122 -151,-142 -133,-161 -111,-175 -89,-189 -64,-199 -39,-204 -13,-208 13,-208 39,-204 64,-198 89,-189 111,-176 133,-160 151,-143 169,-122 182,-100 194,-77 201,-52 207,-26 h 208 l 207,26 202,52 193,77 183,100 168,122 152,143 132,160 112,176 89,189 64,198 39,204 13,208"
       style="fill:none;stroke:#000000;stroke-width:200;stroke-linecap:butt;stroke-linejoin:miter;stroke-miterlimit:10;stroke-dasharray:none;stroke-opacity:1"
       transform="matrix(0.00800546,0,0,0.00800546,113.48985,-431.38309)"
       clip-path="url(#clipPath4420-62)" />
    <path
       d="m 189.9682,105.53163 h -1.03008 v -0.49265 h 1.03008 v -0.26871 q 0,-0.6339 0.28939,-0.93363 0.29284,-0.29972 0.90951,-0.29972 h 0.76136 v 0.5271 h -0.72002 q -0.33762,0 -0.47198,0.14125 -0.13436,0.1378 -0.13436,0.49265 v 0.34106 h 1.32636 v 0.49265 h -1.32636 v 3.36586 h -0.6339 z m 4.22174,3.46577 q -1.17478,0 -1.17478,-1.56063 v -2.3909 h 0.6339 v 2.3909 q 0,1.00942 0.75447,1.00942 0.44098,0 0.68213,-0.31695 0.24116,-0.3204 0.24116,-0.90262 v -2.18075 h 0.63734 v 3.85162 h -0.57533 l -0.062,-0.57877 q -0.34451,0.67868 -1.13688,0.67868 z m 2.8058,-3.95842 h 0.57188 l 0.062,0.57878 q 0.34796,-0.67179 1.13344,-0.67179 1.18167,0 1.18167,1.56063 v 2.39089 h -0.63735 v -2.39089 q 0,-0.52021 -0.18259,-0.76482 -0.17914,-0.2446 -0.5581,-0.2446 -0.45131,0 -0.69591,0.3204 -0.24116,0.31694 -0.24116,0.89917 v 2.18074 h -0.6339 z"
       id="text1-19"
       style="font-size:7.05556px;font-family:'Hack Nerd Font';-inkscape-font-specification:'Hack Nerd Font';letter-spacing:-0.267229px;fill:#1a1a1a;stroke-width:0.264583"
       aria-label="fun" />
    <path
       id="path4419-6-93"
       d="m 11793,67174 -13,208 -39,204 -64,199 -89,189 -112,175 -132,161 -152,142 -168,122 -183,100 -193,77 -202,52 -207,26 h -208 l -207,-26 -201,-52 -194,-77 -182,-100 -169,-122 -151,-142 -133,-161 -111,-175 -89,-189 -64,-199 -39,-204 -13,-208 13,-208 39,-204 64,-198 89,-189 111,-176 133,-160 151,-143 169,-122 182,-100 194,-77 201,-52 207,-26 h 208 l 207,26 202,52 193,77 183,100 168,122 152,143 132,160 112,176 89,189 64,198 39,204 13,208"
       style="fill:#00a839;fill-opacity:1;stroke:#000000;stroke-width:200;stroke-linecap:butt;stroke-linejoin:miter;stroke-miterlimit:10;stroke-dasharray:none;stroke-opacity:1"
       transform="matrix(0.00800546,0,0,0.00800546,149.49842,-352.80426)"
       clip-path="url(#clipPath4420-4-6)" />
    <path
       d="m 225.10689,183.72633 h 0.57189 l 0.062,0.57877 q 0.34795,-0.67179 1.13343,-0.67179 1.18167,0 1.18167,1.56063 v 2.3909 h -0.63734 v -2.3909 q 0,-0.52021 -0.18259,-0.76481 -0.17915,-0.24461 -0.55811,-0.24461 -0.4513,0 -0.6959,0.3204 -0.24116,0.31695 -0.24116,0.89917 v 2.18075 h -0.6339 z m 5.66868,3.95841 q -0.73036,0 -1.06109,-0.58566 l -0.062,0.48576 h -0.57189 v -5.36058 h 0.6339 v 1.99472 q 0.15847,-0.29973 0.43752,-0.44098 0.27906,-0.14469 0.62701,-0.14469 0.41341,0 0.69591,0.17914 0.2825,0.1757 0.45131,0.47198 0.17225,0.29284 0.2446,0.65113 0.0758,0.35829 0.0758,0.71658 0,0.36173 -0.0758,0.72347 -0.0758,0.35829 -0.24805,0.65457 -0.1688,0.29627 -0.4513,0.47542 -0.2825,0.17914 -0.69591,0.17914 z m -0.12747,-0.53743 q 0.30317,0 0.48576,-0.14125 0.18603,-0.14125 0.27905,-0.36863 0.0965,-0.22737 0.13091,-0.48575 0.0344,-0.25839 0.0344,-0.49265 0,-0.23427 -0.0344,-0.49265 -0.0344,-0.26183 -0.13091,-0.48576 -0.093,-0.22738 -0.27905,-0.36863 -0.18259,-0.14125 -0.48576,-0.14125 -0.29973,0 -0.48576,0.14125 -0.18259,0.14125 -0.2825,0.36518 -0.0965,0.22394 -0.13091,0.48576 -0.0344,0.25839 -0.0344,0.49265 0,0.23771 0.0344,0.49954 0.0344,0.25838 0.13091,0.48576 0.0999,0.22393 0.2825,0.36518 0.18603,0.14125 0.48576,0.14125 z m 2.78857,-3.42098 h 0.57533 l 0.062,0.75447 q 0.16192,-0.40996 0.48576,-0.627 0.32729,-0.22049 0.78204,-0.22049 0.47542,0 0.82682,0.24116 v 0.64767 q -0.37207,-0.30316 -0.88194,-0.30316 -0.58567,0 -0.89917,0.37551 -0.31351,0.37207 -0.31351,1.07143 v 1.91892 h -0.63734 z"
       id="text1-1-3"
       style="font-size:7.05556px;font-family:'Hack Nerd Font';-inkscape-font-specification:'Hack Nerd Font';letter-spacing:-0.267229px;fill:#1a1a1a;stroke-width:0.264583"
       aria-label="nbr" />
    <path
       id="path4419-6-0-5"
       d="m 11793,67174 -13,208 -39,204 -64,199 -89,189 -112,175 -132,161 -152,142 -168,122 -183,100 -193,77 -202,52 -207,26 h -208 l -207,-26 -201,-52 -194,-77 -182,-100 -169,-122 -151,-142 -133,-161 -111,-175 -89,-189 -64,-199 -39,-204 -13,-208 13,-208 39,-204 64,-198 89,-189 111,-176 133,-160 151,-143 169,-122 182,-100 194,-77 201,-52 207,-26 h 208 l 207,26 202,52 193,77 183,100 168,122 152,143 132,160 112,176 89,189 64,198 39,204 13,208"
       style="fill:#00a839;fill-opacity:1;stroke:#000000;stroke-width:200;stroke-linecap:butt;stroke-linejoin:miter;stroke-miterlimit:10;stroke-dasharray:none;stroke-opacity:1"
       transform="matrix(0.00800546,0,0,0.00800546,101.18137,-277.79421)"
       clip-path="url(#clipPath4420-4-7-8)" />
    <path
       d="m 176.78983,258.73638 h 0.57189 l 0.062,0.57878 q 0.34796,-0.6718 1.13344,-0.6718 1.18167,0 1.18167,1.56063 v 2.3909 h -0.63735 v -2.3909 q 0,-0.52021 -0.18259,-0.76481 -0.17914,-0.2446 -0.5581,-0.2446 -0.45131,0 -0.69591,0.32039 -0.24116,0.31695 -0.24116,0.89917 v 2.18075 h -0.6339 z m 5.66868,3.95842 q -0.73036,0 -1.06109,-0.58567 l -0.062,0.48576 h -0.57189 v -5.36057 h 0.6339 v 1.99471 q 0.15847,-0.29972 0.43753,-0.44097 0.27905,-0.1447 0.627,-0.1447 0.41341,0 0.69591,0.17915 0.2825,0.1757 0.45131,0.47198 0.17226,0.29283 0.2446,0.65112 0.0758,0.35829 0.0758,0.71658 0,0.36173 -0.0758,0.72347 -0.0758,0.35829 -0.24804,0.65457 -0.16881,0.29628 -0.45131,0.47542 -0.2825,0.17915 -0.69591,0.17915 z m -0.12747,-0.53744 q 0.30317,0 0.48576,-0.14125 0.18603,-0.14125 0.27905,-0.36862 0.0965,-0.22738 0.13091,-0.48576 0.0344,-0.25838 0.0344,-0.49265 0,-0.23427 -0.0344,-0.49265 -0.0345,-0.26183 -0.13091,-0.48576 -0.093,-0.22737 -0.27905,-0.36862 -0.18259,-0.14125 -0.48576,-0.14125 -0.29973,0 -0.48576,0.14125 -0.18259,0.14125 -0.2825,0.36518 -0.0965,0.22393 -0.13091,0.48576 -0.0344,0.25838 -0.0344,0.49264 0,0.23772 0.0344,0.49954 0.0344,0.25839 0.13091,0.48576 0.0999,0.22393 0.2825,0.36518 0.18603,0.14125 0.48576,0.14125 z m 2.78857,-3.42098 h 0.57533 l 0.062,0.75448 q 0.16192,-0.40997 0.48576,-0.62701 0.32729,-0.22049 0.78204,-0.22049 0.47542,0 0.82682,0.24116 v 0.64768 q -0.37207,-0.30317 -0.88194,-0.30317 -0.58567,0 -0.89917,0.37551 -0.31351,0.37208 -0.31351,1.07143 v 1.91892 h -0.63734 z"
       id="text1-1-7-6"
       style="font-size:7.05556px;font-family:'Hack Nerd Font';-inkscape-font-specification:'Hack Nerd Font';letter-spacing:-0.267229px;fill:#1a1a1a;stroke-width:0.264583"
       aria-label="nbr" />
    <path
       id="path4419-6-9-0"
       d="m 11793,67174 -13,208 -39,204 -64,199 -89,189 -112,175 -132,161 -152,142 -168,122 -183,100 -193,77 -202,52 -207,26 h -208 l -207,-26 -201,-52 -194,-77 -182,-100 -169,-122 -151,-142 -133,-161 -111,-175 -89,-189 -64,-199 -39,-204 -13,-208 13,-208 39,-204 64,-198 89,-189 111,-176 133,-160 151,-143 169,-122 182,-100 194,-77 201,-52 207,-26 h 208 l 207,26 202,52 193,77 183,100 168,122 152,143 132,160 112,176 89,189 64,198 39,204 13,208"
       style="fill:none;stroke:#000000;stroke-width:200;stroke-linecap:butt;stroke-linejoin:miter;stroke-miterlimit:10;stroke-dasharray:none;stroke-opacity:1"
       transform="matrix(0.00800546,0,0,0.00800546,136.86861,-277.79421)"
       clip-path="url(#clipPath4420-4-8-7)" />
    <path
       d="m 212.47708,258.73636 h 0.57189 l 0.062,0.57878 q 0.34795,-0.67179 1.13344,-0.67179 1.18166,0 1.18166,1.56063 v 2.39089 h -0.63734 v -2.39089 q 0,-0.52021 -0.18259,-0.76482 -0.17914,-0.24459 -0.55811,-0.24459 -0.4513,0 -0.69591,0.3204 -0.24115,0.31693 -0.24115,0.89917 v 2.18073 h -0.6339 z m 5.66868,3.95842 q -0.73037,0 -1.06109,-0.58567 l -0.062,0.48576 h -0.57189 v -5.36057 h 0.6339 v 1.99471 q 0.15847,-0.29972 0.43752,-0.44097 0.27906,-0.14469 0.62701,-0.14469 0.41341,0 0.69591,0.17914 0.2825,0.1757 0.45131,0.47198 0.17225,0.29283 0.2446,0.65112 0.0758,0.35829 0.0758,0.71658 0,0.36174 -0.0758,0.72347 -0.0758,0.35829 -0.24805,0.65457 -0.1688,0.29628 -0.4513,0.47543 -0.2825,0.17914 -0.69591,0.17914 z m -0.12747,-0.53743 q 0.30317,0 0.48576,-0.14125 0.18603,-0.14125 0.27905,-0.36863 0.0965,-0.22737 0.13091,-0.48576 0.0344,-0.25838 0.0344,-0.49265 0,-0.23426 -0.0344,-0.49265 -0.0345,-0.26182 -0.13091,-0.48575 -0.093,-0.22738 -0.27905,-0.36863 -0.18259,-0.14125 -0.48576,-0.14125 -0.29973,0 -0.48576,0.14125 -0.18259,0.14125 -0.2825,0.36518 -0.0965,0.22393 -0.13091,0.48576 -0.0344,0.25838 -0.0344,0.49265 0,0.23771 0.0344,0.49954 0.0344,0.25838 0.13091,0.48576 0.0999,0.22393 0.2825,0.36518 0.18603,0.14125 0.48576,0.14125 z m 2.78857,-3.42099 h 0.57533 l 0.062,0.75448 q 0.16192,-0.40997 0.48576,-0.62701 0.32728,-0.22048 0.78204,-0.22048 0.47542,0 0.82682,0.24115 v 0.64768 q -0.37207,-0.30317 -0.88195,-0.30317 -0.58566,0 -0.89917,0.37552 -0.3135,0.37207 -0.3135,1.07142 v 1.91892 h -0.63734 z"
       id="text1-1-2-0"
       style="font-size:7.05556px;font-family:'Hack Nerd Font';-inkscape-font-specification:'Hack Nerd Font';letter-spacing:-0.267229px;fill:#1a1a1a;stroke-width:0.264583"
       aria-label="nbr" />
    <path
       id="path4431-6"
       d="m 3433,1772 -13,208 -39,204 -64,199 -89,189 -112,175 -132,161 -152,142 -168,122 -183,100 -193,77 -202,52 -207,26 h -208 l -207,-26 -201,-52 -194,-77 L 887,3172 718,3050 567,2908 434,2747 323,2572 234,2383 170,2184 131,1980 118,1772 131,1564 170,1360 234,1162 323,973 434,797 567,637 718,494 887,372 l 182,-100 194,-77 201,-52 207,-26 h 208 l 207,26 202,52 193,77 183,100 168,122 152,143 132,160 112,176 89,189 64,198 39,204 13,208"
       style="fill:none;stroke:#000000;stroke-width:200;stroke-linecap:butt;stroke-linejoin:miter;stroke-miterlimit:10;stroke-dasharray:none;stroke-opacity:1"
       transform="matrix(0.00800546,0,0,0.00800546,203.79426,206.73219)"
       clip-path="url(#clipPath4432-4)" />
    <path
       d="m 212.24051,223.64811 q -0.89228,0 -1.40216,-0.53399 -0.50643,-0.53744 -0.50643,-1.46417 0,-0.57533 0.19982,-1.04042 0.20326,-0.46509 0.59945,-0.73725 0.39963,-0.27561 0.9853,-0.27561 0.7717,0 1.19544,0.4961 0.4272,0.49265 0.4272,1.3677 v 0.31006 h -2.74575 v 0.0207 q 0,0.60289 0.31695,0.96118 0.31695,0.35829 0.93707,0.35829 0.35829,0 0.69246,-0.11369 0.33762,-0.11368 0.65113,-0.2756 v 0.63045 q -0.32729,0.13436 -0.66491,0.2136 -0.33417,0.0827 -0.68557,0.0827 z m 0.86472,-2.37367 q 0,-0.3204 -0.0965,-0.57878 -0.0965,-0.25838 -0.31006,-0.40997 -0.21015,-0.15158 -0.55811,-0.15158 -0.3514,0 -0.58911,0.15503 -0.23426,0.15158 -0.36862,0.40996 -0.13092,0.25839 -0.16537,0.57534 z m 3.6085,2.30132 q -0.56844,0 -0.88194,-0.36518 -0.31006,-0.36862 -0.31006,-1.03353 v -3.49333 h -1.0163 v -0.49609 h 1.6502 v 3.98942 q 0,0.4203 0.15847,0.64079 0.15848,0.22049 0.46165,0.22049 h 0.74069 v 0.53743 z m 3.18132,0.0724 q -0.55122,0 -1.29536,-0.24116 v -0.65457 q 0.72347,0.36518 1.28847,0.36518 0.40307,0 0.64423,-0.16881 0.24116,-0.16881 0.24116,-0.4513 0,-0.24461 -0.20326,-0.39275 -0.19982,-0.15158 -0.64079,-0.2446 l -0.26527,-0.0551 q -0.54433,-0.11024 -0.79927,-0.36173 -0.25149,-0.25494 -0.25149,-0.69247 0,-0.55466 0.37896,-0.85438 0.37896,-0.29973 1.07832,-0.29973 0.59255,0 1.14722,0.22738 v 0.62012 q -0.54088,-0.31695 -1.13,-0.31695 -0.83371,0 -0.83371,0.56844 0,0.18603 0.0724,0.29628 0.0724,0.1068 0.27561,0.18259 0.20326,0.0723 0.59944,0.15158 l 0.25494,0.0482 q 0.95774,0.18948 0.95774,1.04387 0,0.57188 -0.40652,0.90261 -0.40652,0.32729 -1.11277,0.32729 z m 4.28719,0 q -0.89228,0 -1.40216,-0.53399 -0.50643,-0.53744 -0.50643,-1.46417 0,-0.57533 0.19982,-1.04042 0.20326,-0.46509 0.59945,-0.73725 0.39963,-0.27561 0.98529,-0.27561 0.77171,0 1.19545,0.4961 0.4272,0.49265 0.4272,1.3677 v 0.31006 h -2.74575 v 0.0207 q 0,0.60289 0.31695,0.96118 0.31695,0.35829 0.93707,0.35829 0.35829,0 0.69246,-0.11369 0.33762,-0.11368 0.65113,-0.2756 v 0.63045 q -0.32729,0.13436 -0.66491,0.2136 -0.33417,0.0827 -0.68557,0.0827 z m 0.86472,-2.37367 q 0,-0.3204 -0.0965,-0.57878 -0.0965,-0.25838 -0.31006,-0.40997 -0.21015,-0.15158 -0.55811,-0.15158 -0.3514,0 -0.58911,0.15503 -0.23427,0.15158 -0.36862,0.40996 -0.13092,0.25839 -0.16537,0.57534 z"
       id="text1-1-6-2"
       style="font-size:7.05556px;font-family:'Hack Nerd Font';-inkscape-font-specification:'Hack Nerd Font';letter-spacing:-0.267229px;fill:#1a1a1a;stroke-width:0.264583"
       aria-label="else" />
    <path
       id="path4429-7"
       d="m 3433,1771 -13,208 -39,204 -64,199 -89,189 -112,175 -132,161 -152,142 -168,122 -183,100 -193,77 -202,52 -207,26 h -208 l -207,-26 -201,-52 -194,-77 L 887,3171 718,3049 567,2907 434,2746 323,2571 234,2382 170,2183 131,1979 118,1771 131,1563 170,1359 234,1161 323,972 434,796 567,636 718,493 887,371 l 182,-100 194,-77 201,-52 207,-26 h 208 l 207,26 202,52 193,77 183,100 168,122 152,143 132,160 112,176 89,189 64,198 39,204 13,208"
       style="fill:none;stroke:#000000;stroke-width:200;stroke-linecap:butt;stroke-linejoin:miter;stroke-miterlimit:10;stroke-dasharray:none;stroke-opacity:1"
       transform="matrix(0.00800546,0,0,0.00800546,168.10701,206.12517)"
       clip-path="url(#clipPath4430-6)" />
    <path
       d="m 177.09398,222.94696 q -0.70969,0 -1.00597,-0.28594 -0.29283,-0.28939 -0.29283,-0.9853 v -2.1084 h -1.03009 v -0.49265 h 1.03009 v -1.00941 l 0.6339,-0.27561 v 1.28502 h 1.44005 v 0.49265 h -1.44005 v 2.1084 q 0,0.42375 0.16192,0.596 0.16192,0.16881 0.56499,0.16881 h 0.71314 v 0.50643 z m 1.87218,-5.37435 h 0.63389 v 2.08084 q 0.34796,-0.6718 1.14033,-0.6718 0.47543,0 0.72692,0.22049 0.25493,0.22048 0.3514,0.57533 0.0965,0.35484 0.0965,0.76481 v 2.3909 h -0.63735 v -2.3909 q 0,-0.52021 -0.18259,-0.76481 -0.18259,-0.2446 -0.56844,-0.2446 -0.35829,0 -0.56155,0.17914 -0.19981,0.1757 -0.2825,0.45476 -0.0827,0.27905 -0.0827,0.58566 v 2.18075 h -0.63389 z m 5.64456,5.46048 q -0.89229,0 -1.40216,-0.53399 -0.50643,-0.53744 -0.50643,-1.46417 0,-0.57533 0.19982,-1.04042 0.20326,-0.46509 0.59944,-0.73725 0.39963,-0.27561 0.9853,-0.27561 0.7717,0 1.19545,0.4961 0.42719,0.49265 0.42719,1.3677 v 0.31006 h -2.74574 v 0.0207 q 0,0.60289 0.31695,0.96118 0.31695,0.35829 0.93707,0.35829 0.35829,0 0.69246,-0.11369 0.33762,-0.11368 0.65112,-0.2756 v 0.63045 q -0.32728,0.13436 -0.6649,0.21359 -0.33417,0.0827 -0.68557,0.0827 z m 0.86471,-2.37368 q 0,-0.32039 -0.0965,-0.57877 -0.0965,-0.25838 -0.31005,-0.40997 -0.21015,-0.15158 -0.55811,-0.15158 -0.3514,0 -0.58911,0.15503 -0.23427,0.15158 -0.36863,0.40996 -0.13091,0.25839 -0.16536,0.57533 z m 1.45188,-1.58474 h 0.57189 l 0.062,0.57878 q 0.34795,-0.6718 1.13343,-0.6718 1.18167,0 1.18167,1.56063 v 2.3909 h -0.63734 v -2.3909 q 0,-0.52021 -0.18259,-0.76481 -0.17915,-0.2446 -0.55811,-0.2446 -0.4513,0 -0.69591,0.32039 -0.24115,0.31695 -0.24115,0.89917 v 2.18075 h -0.6339 z"
       id="text1-1-65-5"
       style="font-size:7.05556px;font-family:'Hack Nerd Font';-inkscape-font-specification:'Hack Nerd Font';letter-spacing:-0.267229px;fill:#1a1a1a;stroke-width:0.264583"
       aria-label="then" />
    <path
       id="path4427-9"
       d="m 3433,1771 -13,208 -39,204 -64,199 -89,189 -112,175 -132,161 -152,142 -168,122 -183,100 -193,77 -202,52 -207,26 h -208 l -207,-26 -201,-52 -194,-77 L 887,3171 718,3049 567,2907 434,2746 323,2571 234,2382 170,2183 131,1979 118,1771 131,1563 170,1359 234,1161 323,972 434,796 567,636 718,493 887,371 l 182,-100 194,-77 201,-52 207,-26 h 208 l 207,26 202,52 193,77 183,100 168,122 152,143 132,160 112,176 89,189 64,198 39,204 13,208"
       style="fill:none;stroke:#000000;stroke-width:200;stroke-linecap:butt;stroke-linejoin:miter;stroke-miterlimit:10;stroke-dasharray:none;stroke-opacity:1"
       transform="matrix(0.00800546,0,0,0.00800546,131.06537,205.70183)"
       clip-path="url(#clipPath4428-9)" />
    <path
       d="m 139.6596,222.60973 q -0.60978,0 -1.02664,-0.25494 -0.41341,-0.25838 -0.62701,-0.71658 -0.21015,-0.45819 -0.21015,-1.0542 0,-0.59944 0.2136,-1.0542 0.21359,-0.45819 0.63045,-0.71313 0.41686,-0.25838 1.03353,-0.25838 0.32039,0 0.57878,0.0758 0.25838,0.0724 0.5271,0.22049 v 0.6649 q -0.24461,-0.21704 -0.49265,-0.32039 -0.24461,-0.10336 -0.55811,-0.10336 -0.46509,0 -0.74414,0.19982 -0.27561,0.19981 -0.39963,0.53743 -0.12058,0.33762 -0.12058,0.75103 0,0.40997 0.12402,0.75104 0.12403,0.33762 0.39964,0.53743 0.2756,0.19982 0.73725,0.19982 0.30317,0 0.56499,-0.0999 0.26183,-0.0999 0.48921,-0.31695 v 0.65801 q -0.49265,0.29628 -1.11966,0.29628 z m 3.68085,0 q -0.80615,0 -1.23334,-0.52021 -0.42375,-0.52365 -0.42375,-1.50206 0,-0.98185 0.42719,-1.50551 0.42719,-0.52365 1.22646,-0.52365 0.79926,0 1.22301,0.52365 0.42719,0.52021 0.42719,1.50895 0,0.98186 -0.42375,1.50207 -0.42375,0.51676 -1.22301,0.51676 z m -0.003,-0.53743 q 0.47198,0 0.72347,-0.38585 0.25494,-0.38586 0.25494,-1.10588 0,-0.71658 -0.25494,-1.09899 -0.25149,-0.38585 -0.72347,-0.38585 -0.47542,0 -0.73036,0.38585 -0.25149,0.38241 -0.25149,1.09899 0,0.72002 0.25494,1.10588 0.25494,0.38585 0.72691,0.38585 z m 2.52675,-3.42099 h 0.57188 l 0.062,0.57878 q 0.34796,-0.67179 1.13344,-0.67179 1.18167,0 1.18167,1.56063 v 2.39089 h -0.63734 v -2.39089 q 0,-0.52021 -0.18259,-0.76482 -0.17915,-0.2446 -0.55811,-0.2446 -0.45131,0 -0.69591,0.3204 -0.24116,0.31695 -0.24116,0.89917 v 2.18074 h -0.63389 z m 5.21736,3.95842 q -0.4203,0 -0.70624,-0.17914 -0.28594,-0.17915 -0.4582,-0.47887 -0.16881,-0.29973 -0.2446,-0.66146 -0.0758,-0.36518 -0.0758,-0.73381 0,-0.92328 0.40308,-1.46072 0.40652,-0.53743 1.09554,-0.53743 0.33762,0 0.60633,0.14469 0.26872,0.14125 0.4272,0.44097 v -1.99471 h 0.6339 v 5.36057 h -0.57189 l -0.062,-0.48575 q -0.34107,0.58566 -1.04731,0.58566 z m 0.11369,-0.53743 q 0.29973,0 0.48232,-0.14125 0.18603,-0.14125 0.28249,-0.36518 0.0999,-0.22738 0.13436,-0.48576 0.0344,-0.26183 0.0344,-0.49954 0,-0.23427 -0.0344,-0.49265 -0.0344,-0.25838 -0.13436,-0.48231 -0.0965,-0.22738 -0.28249,-0.36863 -0.18259,-0.14125 -0.48232,-0.14125 -0.30317,0 -0.4892,0.14125 -0.18259,0.14125 -0.27905,0.36863 -0.093,0.22393 -0.12747,0.48231 -0.0345,0.25838 -0.0345,0.49265 0,0.23427 0.0345,0.49609 0.0344,0.25839 0.12747,0.48576 0.0965,0.22393 0.27905,0.36863 0.18603,0.14125 0.4892,0.14125 z"
       id="text1-1-5-8"
       style="font-size:7.05556px;font-family:'Hack Nerd Font';-inkscape-font-specification:'Hack Nerd Font';letter-spacing:-0.267229px;fill:#1a1a1a;stroke-width:0.264583"
       aria-label="cond" />
    <path
       id="path4421-2"
       d="m 3433,1772 -13,208 -39,204 -64,199 -89,189 -112,175 -132,161 -152,142 -168,122 -183,100 -193,77 -202,52 -207,26 h -208 l -207,-26 -201,-52 -194,-77 L 887,3172 718,3050 567,2908 434,2747 323,2572 234,2383 170,2184 131,1980 118,1772 131,1564 170,1360 234,1162 323,973 434,797 567,637 718,494 887,372 l 182,-100 194,-77 201,-52 207,-26 h 208 l 207,26 202,52 193,77 183,100 168,122 152,143 132,160 112,176 89,189 64,198 39,204 13,208"
       style="fill:none;stroke:#000000;stroke-width:200;stroke-linecap:butt;stroke-linejoin:miter;stroke-miterlimit:10;stroke-dasharray:none;stroke-opacity:1"
       transform="matrix(0.00800546,0,0,0.00800546,154.03741,129.48136)"
       clip-path="url(#clipPath4422-8)" />
    <path
       d="m 161.90473,145.62729 q -0.55811,0 -0.92329,-0.32039 -0.36174,-0.32384 -0.36174,-0.92673 0,-0.49954 0.24116,-0.77859 0.24116,-0.2825 0.63045,-0.39619 0.3893,-0.11369 0.83027,-0.11369 h 0.85094 v -0.0999 q 0,-0.49265 -0.25149,-0.68557 -0.24805,-0.19293 -0.69936,-0.19293 -0.3514,0 -0.68901,0.0965 -0.33762,0.0965 -0.63046,0.26872 v -0.6339 q 0.31695,-0.11713 0.64079,-0.19292 0.32384,-0.0758 0.66146,-0.0758 0.34451,0 0.66835,0.0965 0.32728,0.093 0.56499,0.31006 0.23772,0.21359 0.31695,0.57533 0.0551,0.25493 0.0551,0.76825 v 0.78893 q 0,0.32384 0.0344,0.71658 0.0379,0.39274 0.16881,0.69591 h -0.63735 q -0.0586,-0.13436 -0.093,-0.28594 -0.0344,-0.15503 -0.0551,-0.29973 -0.20326,0.34796 -0.56499,0.51677 -0.35829,0.16881 -0.75792,0.16881 z m 0.15503,-0.53054 q 0.39274,0 0.63734,-0.19293 0.24805,-0.19292 0.36173,-0.50298 0.11369,-0.3135 0.11369,-0.67179 v -0.14125 h -0.80271 q -0.26871,0 -0.5271,0.062 -0.25493,0.0586 -0.42374,0.22737 -0.16537,0.16881 -0.16537,0.49265 0,0.36518 0.22393,0.54777 0.22393,0.17915 0.58223,0.17915 z m 3.11241,-3.42787 h 0.57533 l 0.062,0.75447 q 0.16192,-0.40996 0.48576,-0.627 0.32728,-0.22049 0.78204,-0.22049 0.47542,0 0.82682,0.24116 v 0.64767 q -0.37207,-0.30316 -0.88195,-0.30316 -0.58566,0 -0.89917,0.37551 -0.3135,0.37207 -0.3135,1.07143 v 1.91892 h -0.63734 z m 5.00377,5.37435 q -0.27906,0 -0.56155,-0.0517 -0.27906,-0.0517 -0.55122,-0.1378 v -0.62701 q 0.26183,0.12402 0.55122,0.21704 0.29283,0.093 0.596,0.093 0.37207,0 0.57877,-0.14814 0.20671,-0.14814 0.28939,-0.41341 0.0861,-0.26183 0.0861,-0.60289 v -0.4582 q -0.15503,0.33073 -0.4203,0.48576 -0.26527,0.15503 -0.62356,0.15503 -0.40997,0 -0.69591,-0.1757 -0.28595,-0.1757 -0.46165,-0.46509 -0.17225,-0.29283 -0.25149,-0.64423 -0.0792,-0.35485 -0.0792,-0.70625 0,-0.3514 0.0792,-0.7028 0.0792,-0.3514 0.25494,-0.64079 0.1757,-0.29283 0.46164,-0.46853 0.28939,-0.1757 0.7028,-0.1757 0.34796,0 0.60634,0.14469 0.25838,0.1447 0.42719,0.46165 l 0.062,-0.49954 h 0.57189 v 3.59668 q 0,0.8096 -0.38585,1.28502 -0.38241,0.47887 -1.23679,0.47887 z m 0.0723,-2.01538 q 0.45131,0 0.68213,-0.37552 0.23427,-0.37551 0.23427,-1.09209 0,-0.23083 -0.0344,-0.48232 -0.0344,-0.25149 -0.13091,-0.46853 -0.093,-0.22049 -0.27561,-0.35829 -0.18259,-0.13781 -0.47887,-0.13781 -0.4582,0 -0.7028,0.36519 -0.24116,0.36518 -0.24116,1.07487 0,0.71658 0.24805,1.09554 0.24805,0.37896 0.69935,0.37896 z m 3.9668,0.59944 q -0.82682,0 -1.24368,-0.67523 -0.4203,-0.67869 -0.4203,-1.99127 0,-1.31603 0.4203,-1.99471 0.41686,-0.67524 1.24368,-0.67524 0.82682,0 1.24713,0.67524 0.2067,0.33073 0.3135,0.82682 0.1068,0.49265 0.1068,1.16789 0,0.67524 -0.1068,1.16789 -0.1068,0.49265 -0.3135,0.82338 -0.42375,0.67524 -1.24713,0.67523 z m 0,-0.55121 q 0.49265,0 0.73036,-0.52366 0.23771,-0.52021 0.23771,-1.59163 0,-1.07487 -0.23771,-1.59164 -0.23771,-0.5271 -0.73036,-0.5271 -0.48576,0 -0.72347,0.52366 -0.12058,0.25838 -0.18259,0.65112 -0.0586,0.3893 -0.0586,0.94396 0,1.07831 0.24116,1.59163 0.24116,0.52366 0.72347,0.52366 z m 0.007,-0.91295 q -0.11024,0 -0.17225,-0.14814 -0.0586,-0.14814 -0.0999,-0.34796 -0.0345,-0.15847 -0.0586,-0.3824 -0.0207,-0.22393 -0.0207,-0.34107 0,-0.0827 0.0138,-0.29628 0.0138,-0.21359 0.0551,-0.40307 0.0999,-0.49265 0.26872,-0.49265 0.0965,0 0.16192,0.13091 0.0689,0.13092 0.11713,0.37207 0.0344,0.17226 0.0551,0.38585 0.0207,0.2136 0.0207,0.33073 0,0.0689 -0.0138,0.27217 -0.0103,0.20326 -0.0448,0.41685 -0.0861,0.50299 -0.2825,0.50299 z"
       id="text1-2-8"
       style="font-size:7.05556px;font-family:'Hack Nerd Font';-inkscape-font-specification:'Hack Nerd Font';letter-spacing:-0.267229px;fill:#1a1a1a;stroke-width:0.264583"
       aria-label="arg0" />
    <path
       id="path4423-9"
       d="m 3433,1772 -13,208 -39,204 -64,199 -89,189 -112,175 -132,161 -152,142 -168,122 -183,100 -193,77 -202,52 -207,26 h -208 l -207,-26 -201,-52 -194,-77 L 887,3172 718,3050 567,2908 434,2747 323,2572 234,2383 170,2184 131,1980 118,1772 131,1564 170,1360 234,1162 323,973 434,797 567,637 718,494 887,372 l 182,-100 194,-77 201,-52 207,-26 h 208 l 207,26 202,52 193,77 183,100 168,122 152,143 132,160 112,176 89,189 64,198 39,204 13,208"
       style="fill:none;stroke:#000000;stroke-width:200;stroke-linecap:butt;stroke-linejoin:miter;stroke-miterlimit:10;stroke-dasharray:none;stroke-opacity:1"
       transform="matrix(0.00800546,0,0,0.00800546,197.55297,130.48022)"
       clip-path="url(#clipPath4424-3)" />
    <path
       d="m 205.83714,146.71229 q -0.73036,0 -1.06109,-0.58567 l -0.062,0.48576 h -0.5719 v -5.36057 h 0.6339 v 1.99471 q 0.15847,-0.29973 0.43753,-0.44097 0.27905,-0.1447 0.627,-0.1447 0.41341,0 0.69591,0.17915 0.2825,0.1757 0.45131,0.47197 0.17226,0.29284 0.2446,0.65113 0.0758,0.35829 0.0758,0.71658 0,0.36173 -0.0758,0.72347 -0.0758,0.35829 -0.24804,0.65457 -0.16881,0.29628 -0.45131,0.47542 -0.2825,0.17915 -0.69591,0.17915 z m -0.12747,-0.53744 q 0.30317,0 0.48576,-0.14125 0.18603,-0.14125 0.27905,-0.36862 0.0965,-0.22738 0.13091,-0.48576 0.0344,-0.25838 0.0344,-0.49265 0,-0.23427 -0.0344,-0.49265 -0.0344,-0.26183 -0.13091,-0.48576 -0.093,-0.22738 -0.27905,-0.36862 -0.18259,-0.14125 -0.48576,-0.14125 -0.29972,0 -0.48576,0.14125 -0.18259,0.14124 -0.2825,0.36518 -0.0965,0.22393 -0.13091,0.48575 -0.0345,0.25839 -0.0345,0.49265 0,0.23772 0.0345,0.49954 0.0344,0.25838 0.13091,0.48576 0.0999,0.22393 0.2825,0.36518 0.18604,0.14125 0.48576,0.14125 z m 3.87722,0.53744 q -0.80615,0 -1.23334,-0.52021 -0.42375,-0.52366 -0.42375,-1.50207 0,-0.98185 0.42719,-1.5055 0.4272,-0.52366 1.22646,-0.52366 0.79926,0 1.22301,0.52366 0.42719,0.52021 0.42719,1.50895 0,0.98185 -0.42375,1.50206 -0.42374,0.51677 -1.22301,0.51677 z m -0.003,-0.53744 q 0.47198,0 0.72347,-0.38585 0.25494,-0.38585 0.25494,-1.10588 0,-0.71658 -0.25494,-1.09898 -0.25149,-0.38585 -0.72347,-0.38585 -0.47542,0 -0.73036,0.38585 -0.25149,0.3824 -0.25149,1.09898 0,0.72003 0.25494,1.10588 0.25493,0.38585 0.72691,0.38585 z m 3.76354,0.53744 q -0.4203,0 -0.70625,-0.17915 -0.28594,-0.17914 -0.45819,-0.47887 -0.16881,-0.29972 -0.24461,-0.66146 -0.0758,-0.36518 -0.0758,-0.7338 0,-0.92329 0.40308,-1.46072 0.40652,-0.53744 1.09554,-0.53744 0.33762,0 0.60634,0.1447 0.26872,0.14124 0.42719,0.44097 v -1.99471 h 0.6339 v 5.36057 h -0.57189 l -0.062,-0.48576 q -0.34106,0.58567 -1.04731,0.58567 z m 0.11369,-0.53744 q 0.29972,0 0.48231,-0.14125 0.18604,-0.14125 0.2825,-0.36518 0.0999,-0.22738 0.13436,-0.48576 0.0344,-0.26182 0.0344,-0.49954 0,-0.23426 -0.0344,-0.49265 -0.0344,-0.25838 -0.13436,-0.48231 -0.0965,-0.22738 -0.2825,-0.36862 -0.18259,-0.14125 -0.48231,-0.14125 -0.30317,0 -0.48921,0.14125 -0.18259,0.14124 -0.27905,0.36862 -0.093,0.22393 -0.12747,0.48231 -0.0344,0.25839 -0.0344,0.49265 0,0.23427 0.0344,0.4961 0.0345,0.25838 0.12747,0.48576 0.0965,0.22393 0.27905,0.36862 0.18604,0.14125 0.48921,0.14125 z m 2.5922,1.37459 h 0.37551 q 0.27906,0 0.43064,-0.15847 0.16881,-0.1757 0.40997,-0.8406 l -1.49173,-3.7965 h 0.67179 l 1.14378,3.0179 1.12654,-3.0179 h 0.6718 l -1.01631,2.61827 q -0.12057,0.31006 -0.21015,0.54088 -0.0276,0.0689 -0.0448,0.11025 -0.0138,0.0379 -0.0379,0.0999 -0.0207,0.062 -0.0689,0.19981 l -0.0413,0.11024 q -0.13436,0.37552 -0.25493,0.65802 -0.11714,0.28594 -0.19982,0.43064 -0.31006,0.5581 -0.95429,0.5581 h -0.50988 z"
       id="text1-6-9"
       style="font-size:7.05556px;font-family:'Hack Nerd Font';-inkscape-font-specification:'Hack Nerd Font';letter-spacing:-0.267229px;fill:#1a1a1a;stroke-width:0.264583"
       aria-label="body" />
    <path
       id="path4425-0"
       d="m 3433,1772 -13,208 -39,204 -64,199 -89,189 -112,175 -132,161 -152,142 -168,122 -183,100 -193,77 -202,52 -207,26 h -208 l -207,-26 -201,-52 -194,-77 L 887,3172 718,3050 567,2908 434,2747 323,2572 234,2383 170,2184 131,1980 118,1772 131,1564 170,1360 234,1162 323,973 434,797 567,637 718,494 887,372 l 182,-100 194,-77 201,-52 207,-26 h 208 l 207,26 202,52 193,77 183,100 168,122 152,143 132,160 112,176 89,189 64,198 39,204 13,208"
       style="fill:none;stroke:#000000;stroke-width:200;stroke-linecap:butt;stroke-linejoin:miter;stroke-miterlimit:10;stroke-dasharray:none;stroke-opacity:1"
       transform="matrix(0.00800546,0,0,0.00800546,167.68368,170.76883)"
       clip-path="url(#clipPath4426-1)" />
    <path
       d="m 179.46283,183.06314 q -0.10336,0 -0.10336,-0.10335 v -0.596 q 0,-0.10335 0.10336,-0.10335 h 0.49609 q 0.10335,0 0.10335,0.10335 v 0.596 q 0,0.10335 -0.10335,0.10335 z m 1.15755,4.58543 q -0.56844,0 -0.88195,-0.36518 -0.31005,-0.36863 -0.31005,-1.03353 v -1.99127 h -0.84405 v -0.49609 h 1.47794 v 2.48736 q 0,0.4203 0.15848,0.64079 0.15847,0.22048 0.46164,0.22048 h 0.7407 v 0.53744 z m 2.62665,-3.39342 h -1.03008 v -0.49265 h 1.03008 v -0.26872 q 0,-0.6339 0.28939,-0.93362 0.29283,-0.29972 0.90951,-0.29972 h 0.76136 v 0.5271 h -0.72002 q -0.33762,0 -0.47198,0.14124 -0.13436,0.13781 -0.13436,0.49265 v 0.34107 h 1.32636 v 0.49265 h -1.32636 v 3.36586 h -0.6339 z"
       id="text1-9-2"
       style="font-size:7.05556px;font-family:'Hack Nerd Font';-inkscape-font-specification:'Hack Nerd Font';letter-spacing:-0.267229px;fill:#1a1a1a;stroke-width:0.264583"
       aria-label="if" />
    <path
       style="fill:none;fill-rule:evenodd;stroke:#000000;stroke-width:0.264583px;stroke-linecap:butt;stroke-linejoin:miter;stroke-opacity:1"
       d="m 186.83987,117.09499 -10.99405,15.71432"
       id="path13-7" />
    <path
       style="fill:none;fill-rule:evenodd;stroke:#000000;stroke-width:0.264583px;stroke-linecap:butt;stroke-linejoin:miter;stroke-opacity:1"
       d="m 200.04376,118.47694 6.30465,14.08646"
       id="path14-6" />
    <path
       style="fill:none;fill-rule:evenodd;stroke:#000000;stroke-width:0.264583px;stroke-linecap:butt;stroke-linejoin:miter;stroke-opacity:1"
       d="m 189.78684,174.31084 14.0867,-19.00057"
       id="path15-1" />
    <path
       style="fill:none;fill-rule:evenodd;stroke:#000000;stroke-width:0.264583px;stroke-linecap:butt;stroke-linejoin:miter;stroke-opacity:1"
       d="m 154.87844,210.72253 17.41377,-16.60852"
       id="path17-3" />
    <path
       style="fill:none;fill-rule:evenodd;stroke:#000000;stroke-width:0.264583px;stroke-linecap:butt;stroke-linejoin:miter;stroke-opacity:1"
       d="M 208.61509,211.56485 191.2909,194.31129"
       id="path19-2" />
    <path
       style="fill:none;fill-rule:evenodd;stroke:#000000;stroke-width:0.264583px;stroke-linecap:butt;stroke-linejoin:miter;stroke-opacity:1"
       d="M 182.31914,247.64835 V 233.55188"
       id="path20-1" />
    <path
       style="fill:none;fill-rule:evenodd;stroke:#000000;stroke-width:0.214795px;stroke-linecap:butt;stroke-linejoin:miter;stroke-opacity:1"
       d="M 218.07254,245.91497 V 234.1669"
       id="path21-5" />
    <path
       style="fill:none;fill-rule:evenodd;stroke:#000000;stroke-width:0.264583px;stroke-linecap:butt;stroke-linejoin:miter;stroke-opacity:1"
       d="m 217.39362,156.68242 7.61332,16.25396"
       id="path22-9" />
    <path
       style="fill:none;fill-rule:evenodd;stroke:#000000;stroke-width:0.264583px;stroke-linecap:butt;stroke-linejoin:miter;stroke-opacity:1"
       d="m 182.05448,198.20354 0.10599,8.85026"
       id="path23-9" />
    <path
       style="fill:none;fill-opacity:1;stroke-width:0.264583"
       d="m 27.733248,93.680068 c -0.163121,0.220122 -0.709486,0.497245 -0.489363,0.660367 0.22012,0.163122 0.653748,-0.879547 0.489363,-0.660367 -0.42966,0.57288 -1.056132,1.345426 -1.479915,1.981101 -0.427898,0.641849 -0.647928,1.436069 -0.825458,2.146192 -0.08509,0.340346 -0.364673,0.664043 -0.495276,0.99055 -0.171535,0.428842 -0.194324,0.913155 -0.330182,1.320739 -0.02461,0.0738 -0.140483,0.0913 -0.165092,0.16509 -0.07676,0.23028 0.04767,0.58709 0,0.82546 -0.275733,1.37865 -0.330184,1.77219 -0.330184,3.13674 0,0.30399 -0.143893,1.8584 0,2.14619 0.288375,0.57675 0.335603,1.17732 0.495276,1.81601 0.114758,0.45904 0.405646,0.87259 0.495274,1.32073 0.03238,0.16189 -0.04004,0.33512 0,0.49528 0.01886,0.0755 0.140483,0.0913 0.165092,0.16509 0.203033,0.60909 0.327594,3.97257 0.165092,4.62257 -0.06318,0.25271 -0.293436,1.0635 -0.330184,1.32073 -0.05448,0.38134 0.06333,0.77567 0,1.15564 -0.122341,0.73406 -0.479386,1.42227 -0.660366,2.1462 -0.09617,0.38467 0.04411,0.57213 -0.165092,0.99055 -0.25173,0.50345 -0.130879,-0.30195 -0.330184,0.49527 -0.02669,0.10678 0.04922,0.23174 0,0.33019 -0.02461,0.0492 -0.12618,-0.0389 -0.165092,0 -0.365456,0.36545 -0.497324,1.07565 -0.825458,1.48582 -0.327289,0.40911 -0.86325,0.71705 -1.155641,1.15564 -0.06826,0.10239 -0.07808,0.24317 -0.165092,0.33019 -0.336545,0.33654 -0.809858,0.37221 -1.155642,0.66036 -0.408607,0.34051 -1.528543,1.42464 -1.9811,1.65092 -0.737303,0.36865 -1.309592,0.22561 -2.146194,0.33018 -0.620265,0.0775 -1.207111,0.20841 -1.816007,0.33019 -0.323773,0.0647 -0.663686,-0.0467 -0.990553,0 -0.121814,0.0174 -0.208081,0.14983 -0.330181,0.16509 -0.600662,0.0751 -1.216758,-0.0856 -1.81601,0 -0.121814,0.0174 -0.220123,0.11006 -0.330184,0.16509 -0.330182,0 -0.662004,-0.0329 -0.99055,0 -0.6372859,0.0637 -1.3881417,0.49095 -1.9810994,0.66037 -0.3741525,0.1069 -0.7802297,0.0627 -1.1556417,0.16509 -0.6734493,0.18367 -1.9052355,0.75257 -2.4763759,0.99055 -2.330026,0.97084 -4.179964,3.16949 -5.448027,5.28293 -0.376238,0.62707 -0.504008,1.3382 -0.825458,1.9811 -0.03481,0.0696 -0.140483,0.0913 -0.165092,0.1651 -0.157583,0.47275 -0.07595,0.99554 -0.165092,1.48582 -0.51616,2.83887 0.283827,-2.02013 -0.495276,1.48583 -0.04775,0.21488 0.0273,0.44194 0,0.66037 -0.02814,0.22514 -0.133004,0.43575 -0.165092,0.66036 -0.277265,1.94085 0.21658,3.99409 0,5.9433 -0.09642,0.8678 -0.206542,1.77598 -0.330182,2.64147 -0.07175,0.50226 -0.284249,0.98055 -0.330184,1.48583 -0.06477,0.71245 0,1.43079 0,2.14619 0,0.30466 -0.09196,1.118 0,1.48582 0.234797,0.93919 0.736193,1.63748 1.155642,2.47638 0.310354,0.62071 0.515104,1.52548 0.825458,2.14619 0.06961,0.13922 0.230539,0.21061 0.330184,0.33018 0.958421,1.15011 1.867241,1.668 3.301833,2.1462 0.362765,0.12092 1.153319,-0.0302 1.485826,0 1.5554245,0.1414 3.2144519,0.33069 4.7876591,0.16509 1.3900494,-0.14632 3.7141629,-0.47454 5.1178429,-0.82546 0.468961,-0.11724 1.242724,-0.0834 1.650918,-0.16509 1.769211,-0.35384 -1.516004,0.023 1.485826,-0.33018 0.603668,-0.071 1.218586,-0.0531 1.81601,-0.1651 0.462127,-0.0867 0.867119,-0.37156 1.320734,-0.49527 2.262352,-0.61701 4.004006,-1.094 6.108393,-2.14619 0.471109,-0.23556 1.122355,-0.46199 1.485826,-0.82546 0.194561,-0.19457 0.300712,-0.46581 0.495274,-0.66037 0.838366,-0.83837 0.435551,-0.15946 0.990549,-0.82546 1.68561,-2.02273 2.905541,-4.39118 3.632018,-6.93385 0.07559,-0.26457 0,-0.55031 0,-0.82546 0,-0.66037 0.06571,-1.32401 0,-1.9811 -0.06409,-0.64092 -0.475279,-1.19906 -0.660366,-1.81601 -0.03163,-0.10542 0.0348,-0.22577 0,-0.33018 -0.02461,-0.0738 -0.14048,-0.0913 -0.165092,-0.16509 -0.08701,-0.26104 0.03891,-0.55308 0,-0.82546 -0.03209,-0.22462 -0.140036,-0.43486 -0.165092,-0.66037 -0.239953,-2.15958 0.498356,-4.3124 0.82546,-6.43858 0.241732,-1.57126 0.531112,-3.05272 0.825458,-4.62256 0.168166,-0.8969 0.24208,-1.8049 0.660366,-2.64147 0.108791,-0.21759 0.570063,-1.06534 0.660368,-1.15564 0.123052,-0.12306 0.339624,-0.0873 0.495276,-0.1651 2.317297,-1.15865 5.885765,-0.66412 7.429127,1.65092 0.09653,0.14479 0.08727,0.33963 0.165092,0.49528 0.895233,1.79047 0.825457,2.66541 0.825457,4.62257 0,1.25127 0.323044,2.53348 0.165093,3.79711 0.170722,0.426 -0.261927,0.64926 -0.330185,0.99054 -0.03238,0.16189 0.02334,0.33185 0,0.49528 -0.0826,0.57821 -0.339656,1.10626 -0.495276,1.65092 -0.380799,1.33279 -0.789651,2.62024 -1.155642,3.9622 -0.255391,0.93644 -0.425923,1.86878 -0.660365,2.80656 -0.06674,0.26694 0.03891,0.55307 0,0.82545 -0.116658,0.8166 -0.391118,1.64312 -0.495276,2.47638 -0.01365,0.10921 0,0.22012 0,0.33019 -0.05503,0.44024 -0.08573,0.88421 -0.165092,1.32073 -0.172279,0.94754 -0.592649,1.87532 -0.825458,2.80656 -0.02669,0.10677 0.0348,0.22577 0,0.33018 -0.02461,0.0738 -0.127296,0.0971 -0.165092,0.16509 -0.358555,0.6454 -0.581009,1.36679 -0.99055,1.9811 -0.221652,0.33248 -0.603805,0.65808 -0.825457,0.99055 -0.715161,1.07274 -1.344647,2.13481 -2.146195,3.13675 -1.260488,1.57561 -2.322147,3.25947 -3.632017,4.78766 -0.214392,0.25012 -0.651153,0.88412 -0.99055,1.15564 -0.901332,0.72106 -1.909225,0.64839 -2.971652,0.82546 -1.428091,0.23801 -2.851372,0.66534 -4.292383,0.82546 -0.79244,0.088 -0.293497,-0.14675 -1.320733,0 -0.121817,0.0174 -0.20837,0.14768 -0.330184,0.16509 -0.272389,0.0389 -0.556414,-0.0576 -0.825458,0 -0.848223,-0.40604 -1.196676,0.48341 -1.81601,0.66036 -0.269806,0.0771 -0.564925,0.0609 -0.825458,0.1651 -2.007923,0.80317 -5.298927,3.6054 -6.603669,5.28293 -2.466377,3.17106 -3.2002332,6.09567 -3.9622015,9.9055 -0.1821418,0.91071 -0.2656178,0.65384 -0.3301841,1.81601 -0.081743,1.4714 0.1335855,2.98805 0,4.45748 -0.1127072,1.23979 -0.4191026,2.4257 -0.6603656,3.63202 -0.032377,0.16188 0.040039,0.33511 0,0.49527 -0.3114013,1.2456 -0.2244275,0.43338 -0.4952762,1.15564 -0.2017315,0.53796 -0.2689542,1.12284 -0.4952735,1.65092 -0.4036854,0.94193 -1.3198761,1.76041 -2.1461941,2.31129 -0.624382,0.41625 -1.201724,0.88195 -1.816007,1.32073 -0.512623,0.36616 -1.136381,0.62302 -1.650918,0.99055 -0.126659,0.0905 -0.190966,0.26057 -0.330185,0.33018 -0.358333,0.17917 -0.783666,0.1814 -1.155641,0.33019 -1.255935,0.50237 -2.631873,0.8005 -3.962201,0.99054 -2.072301,0.29605 -4.932815,-0.19437 -6.76876,0.33019 -0.922451,0.26356 -1.570204,0.57865 -2.476376,0.99055 -0.421892,0.19177 -0.474061,0.0959 -0.825459,0.33018 -0.793776,0.52919 -1.460793,1.01333 -2.311284,1.48583 -0.514194,0.28566 -1.039118,0.43459 -1.485825,0.82546 -0.689073,0.60294 -0.974953,1.03787 -1.485826,1.65091 -0.330183,0.39623 -1.196915,1.11437 -1.485825,1.48583 -0.151093,0.19426 -0.208082,0.44669 -0.330183,0.66037 -1.199505,2.09913 0.424339,-0.8016 -0.660367,0.82546 -0.804813,1.20721 -1.661643,2.68973 -1.981101,4.12729 -0.310559,1.39752 -0.290439,3.25597 0.165092,4.62257 0.626977,1.88093 2.659632,4.80809 3.962201,6.27348 0.310225,0.349 0.691616,0.63183 0.99055,0.99055 0.127023,0.15243 0.189883,0.35497 0.330184,0.49528 0.140301,0.1403 0.345952,0.19952 0.495275,0.33018 0.673798,0.58957 1.293378,1.24291 1.981101,1.81601 0.304853,0.25404 0.680677,0.41247 0.99055,0.66036 0.449098,0.35929 0.854244,0.82244 1.320734,1.15565 1.188812,0.84915 0.685729,0.18482 2.146192,1.32073 0.09713,0.0755 0.07808,0.24317 0.165092,0.33018 0.711366,0.71137 0.271562,-0.01 1.155641,0.49528 0.202714,0.11584 0.292563,0.37944 0.495276,0.49527 0.197001,0.11258 0.449698,0.0808 0.660367,0.1651 0.587501,0.235 1.840245,0.89967 2.476375,0.99055 0.490298,0.07 0.990551,0 1.485826,0 0.330183,0 0.668577,0.0732 0.99055,0 2.102788,-0.47791 3.7716,-1.15919 5.448027,-2.47638 0.753522,-0.59205 0.563218,-0.64368 1.155641,-1.32073 0.846373,-0.96729 1.727872,-1.96992 2.311284,-3.13674 0.07782,-0.15565 0.07875,-0.34419 0.165092,-0.49528 0.564991,-0.98874 1.4204474,-1.62967 2.1461915,-2.47638 0.3967718,-0.4629 0.8643779,-1.11358 1.4858259,-1.32073 0.8035343,-0.26784 1.7904089,-0.16509 2.6414676,-0.16509 2.604638,0 3.609586,0.37908 5.117843,2.64147 0.09653,0.14479 0.07556,0.34605 0.165092,0.49527 0.243557,0.40593 0.613752,0.73223 0.825458,1.15564 0.125489,0.25098 0.06436,0.56356 0.165092,0.82546 0.176694,0.4594 0.477565,0.86373 0.660368,1.32073 0.04087,0.10219 -0.04336,0.22903 0,0.33019 0.1264,0.29494 0.368874,0.53052 0.495274,0.82546 0.04336,0.10116 -0.02669,0.22341 0,0.33018 0.347482,1.38993 -0.0499,1.45379 -0.495274,2.64147 -0.630155,1.68041 0.605809,-0.63911 -0.82546,1.65092 -0.78023,1.24836 -1.42431,2.61448 -2.311283,3.79711 -0.964513,1.28601 -2.230922,2.27702 -3.301834,3.46692 -0.490966,0.54552 -0.647713,1.07952 -0.9905495,1.65092 -0.8080136,1.34669 0.1172263,-0.21134 -0.6603682,0.82546 -0.7123642,0.94981 -1.518965,5.01842 -1.1556418,6.10839 0.1371732,0.41152 0.6840511,0.40124 0.8254577,0.82546 0.052208,0.15662 -0.073829,0.34761 0,0.49527 0.034806,0.0696 0.1462167,0.0896 0.165092,0.1651 0.112186,0.44874 0,1.016 0,1.48582 0,1.23272 0.1736408,2.58163 0,3.79711 -0.1189302,0.83252 -0.2259303,1.64237 -0.3301841,2.47638 -0.1660842,1.32867 0.261829,2.51315 0.4952762,3.79711 0.2085843,1.14721 0.2454936,2.3606 0.6603682,3.46692 0.2790799,0.74422 0.7002705,1.20885 1.1556415,1.81601 0.03302,0.044 0,0.11006 0,0.16509 0.22012,0.27516 0.411205,0.5763 0.660366,0.82546 0.619344,0.61935 0.304361,0.10445 0.82546,0.49528 1.324086,0.99306 2.682777,1.57869 4.292383,1.9811 2.189324,0.54733 4.546809,0.32435 6.768761,0.49527 1.057225,0.0813 2.088674,0.19918 3.136742,0.33018 0.992566,0.12408 2.411616,0 3.301836,0 2.080439,0 5.755452,0.47392 7.429126,-0.99055 0.207074,-0.18118 0.300713,-0.4658 0.495274,-0.66036 0.358756,-0.35876 0.796888,-0.6318 1.155644,-0.99055 0.08701,-0.087 0.09683,-0.2278 0.16509,-0.33018 0.479531,-0.7193 1.037159,-1.39842 1.485826,-2.1462 0.384236,-0.64039 0.984369,-1.14328 1.320734,-1.81601 0.271393,-0.54278 0.553593,-1.10718 0.82546,-1.65091 0.427738,-0.85548 0.600297,-1.90592 0.825457,-2.80656 0.380638,-1.52255 0.779992,-3.04338 0.99055,-4.62257 0.02909,-0.21819 -0.03113,-0.44246 0,-0.66037 0.127992,-0.89594 0.568275,-1.78419 0.825458,-2.64146 0.440735,-1.46912 -0.01728,-0.20926 0.165092,-1.48583 0.225682,-1.57976 0.624737,-3.18188 0.82546,-4.78766 0.07897,-0.63172 0,-1.34765 0,-1.9811 0,-1.65176 -0.01574,-3.30997 -0.165092,-4.95275 -0.0303,-0.33336 -0.142825,-0.65656 -0.165092,-0.99055 -0.03295,-0.49418 0.03529,-0.99181 0,-1.48583 -0.06768,-0.94756 -0.384278,-1.86309 -0.495276,-2.80656 -0.191707,-1.6295 0.117086,-3.31355 0,-4.95275 -0.02772,-0.38814 -0.140819,-0.76727 -0.165092,-1.15564 -0.296831,-4.74929 0.757571,-9.70215 1.485826,-14.36298 0.309057,-1.97797 0.809445,-3.95115 0.990549,-5.9433 0.0349,-0.38384 -0.07503,-1.2007 0,-1.65092 0.106646,-0.63987 0.263777,-1.12523 0.165093,-1.81601 -0.05221,-0.36544 -0.349856,-0.65124 -0.495274,-0.99055 -0.35982,-0.83957 -0.775147,-1.86722 -1.485826,-2.47637 -0.553707,-0.47461 -1.188638,-0.90798 -1.650918,-1.48583 -1.834168,-2.29271 -3.086671,-4.3127 -2.641468,-7.42913 0.114933,-0.80451 0.38448,-1.57558 0.660369,-2.31128 0.426333,-1.13689 0.67446,-2.34417 1.155641,-3.46693 0.776505,-1.81184 2.089153,-3.2718 3.301834,-4.78766 1.021437,-1.27679 2.234911,-2.56867 3.797109,-3.13674 0.441876,-0.16068 0.891077,-0.30432 1.320734,-0.49527 0.142134,-0.0632 0.131016,-0.26468 0.330184,-0.1651 3.38945,1.69473 4.174061,6.06022 5.448028,9.24514 0.536643,1.34161 1.183399,2.60056 1.981099,3.79711 0.246105,0.36916 0.383209,0.80919 0.660368,1.15564 0.145849,0.18232 0.35795,0.30646 0.495274,0.49528 0.538617,0.74059 0.992208,1.65257 1.650918,2.31128 0.423288,0.42329 1.170045,0.69001 1.650918,0.99055 0.450699,0.28169 0.84818,0.70702 1.320734,0.99055 0.571468,0.34288 1.246303,0.49992 1.816007,0.82546 0.135141,0.0772 0.198869,0.24662 0.330184,0.33018 0.993055,0.63195 1.705345,0.97661 2.80656,1.32074 3.112611,0.97269 7.097487,0.53228 10.235686,-0.16509 0.936967,-0.20822 1.881328,-0.68215 2.806557,-0.99055 1.04158,-0.3472 2.0973,-0.64407 3.136744,-0.99055 0.215252,-0.0718 0.463365,-0.0525 0.660366,-0.1651 0.202713,-0.11583 0.301014,-0.36576 0.495276,-0.49527 0.348713,-0.23248 0.787715,-0.29459 1.155642,-0.49528 0.385215,-0.22012 0.770427,-0.44024 1.155642,-0.66036 0.110061,-0.11007 0.200676,-0.24385 0.330184,-0.33019 1.324065,-0.88271 2.550718,-1.64435 3.797109,-2.64146 1.484376,-1.18751 -0.583107,0.41801 0.495274,-0.66037 0.652584,-0.65259 1.594122,-1.05691 2.146194,-1.81601 1.903984,-2.61798 2.456085,-5.76344 2.641468,-8.91495 0.069,-1.17294 0.238643,-2.29008 0.165092,-3.46693 -0.104352,-1.66959 -0.453523,-3.29799 -0.660369,-4.95275 -0.161028,-1.28823 -0.05863,-2.51962 -0.165092,-3.79711 -0.08731,-1.04773 -0.199779,-2.0935 -0.330184,-3.13674 -0.103965,-0.83173 -0.671404,-1.53622 -0.99055,-2.31129 -0.438017,-1.06376 -0.183975,-0.97305 -0.825457,-1.9811 -0.507217,-0.79705 -1.236258,-1.57341 -1.81601,-2.31128 -0.33999,-0.43272 -0.601425,-0.93161 -0.99055,-1.32073 -1.8841,-1.88411 -4.352004,-3.21827 -6.768761,-4.29239 -0.969031,-0.43068 -1.284288,-0.40362 -2.311284,-0.66037 -1.569304,-0.39232 -3.160747,-1.89929 -3.962201,-3.30183 -1.222351,-2.13912 -1.614935,-6.30471 -1.320734,-8.58477 0.186457,-1.44503 0.644739,-2.84662 0.82546,-4.29238 0.346626,-2.77302 0.738778,-5.7845 0.495274,-8.58477 -0.180277,-2.07319 -1.024652,-4.51672 -1.816008,-6.43858 -0.122176,-0.29671 -0.367331,-0.53119 -0.495276,-0.82546 -1.826146,-4.20013 -2.596909,-7.25141 -5.778209,-10.73096 -7.047566,-7.70827 -0.355698,-0.27173 -4.787659,-4.45748 -0.481761,-0.45499 -0.84088,-1.02882 -1.320734,-1.48582 -1.12853,-1.07479 -2.329984,-2.07086 -3.466928,-3.13674 -1.135763,-1.06478 -1.461148,-1.1607 -2.476375,-2.31129 -0.466268,-0.52844 -0.859182,-1.11835 -1.320734,-1.65092 -1.273403,-1.46931 -2.6967,-2.815963 -3.962202,-4.292381 -0.439838,-0.513147 -0.91449,-1.10926 -1.320731,-1.650917 -0.147664,-0.196883 -0.156162,-0.486345 -0.330184,-0.660367 -1.984994,-1.984994 -4.183242,-2.916804 -6.933853,-3.466926 -0.596027,-0.119206 -1.218586,-0.05307 -1.816008,-0.165092 -1.569431,-0.294268 -3.195375,-0.680705 -4.787661,-0.825458 -0.988002,-0.08982 -1.983301,-0.07915 -2.97165,-0.165092 -0.279548,-0.02431 -0.545684,-0.14357 -0.82546,-0.165092 -0.438946,-0.03376 -0.883888,0.05461 -1.320731,0 -0.450292,-0.05629 -0.873114,-0.25558 -1.320734,-0.330183 -0.622408,-0.103735 -1.677905,-0.09048 -2.311286,0 -0.907955,0.129708 -1.503418,0.75171 -2.311284,1.155642 -0.189264,0.09463 -0.229642,0.344466 -0.330184,0.495275 -0.15141,0.227117 -0.254688,0.169794 -0.495273,0.330184 -0.58674,0.39116 -0.532802,0.370622 -1.286005,0.131855"
       id="path24" />
    <path
       style="fill:none;fill-opacity:1;stroke:#079700;stroke-width:1.165;stroke-dasharray:none;stroke-opacity:1"
       d="M 22.127825,95.82626 -4.949,129.61745 c 0,0 -5.613118,15.07595 1.485825,23.66073 7.098943,8.58477 11.2262365,11.17815 16.34408,11.53237 5.117843,0.35423 10.070597,-4.59852 13.042246,-6.9098 2.971649,-2.31129 5.943301,-9.57532 6.768759,-17.33464 0.82546,-7.7593 -3.136741,-11.39132 3.301836,-16.67426 6.438577,-5.28293 8.914952,2.97165 7.594219,6.60367 -1.320734,3.63202 -3.301836,19.15064 -1.485826,21.9572 1.816007,2.80656 1.155641,6.60367 -1.155642,8.91495 -2.311284,2.31128 -3.301836,8.25459 -5.943301,8.25459 -2.641468,0 -6.768761,-5.61312 -13.372431,-1.65092 -6.603669,3.9622 -13.5375194,7.09894 -12.8771538,11.55642 0.6603683,4.45748 0.4952762,10.23569 2.9716518,12.38188 2.476376,2.14619 -2.4763756,7.42913 -4.7876591,9.57532 -2.3112859,2.14619 -3.3018359,5.28293 -5.9433039,4.62257 -2.641467,-0.66037 -7.924401,-5.11785 -11.391327,-3.9622 -3.466926,1.15564 -13.702612,3.63201 -14.197888,7.09894 -0.495275,3.46692 -0.165091,12.87715 -0.165091,12.87715 0,0 -0.660367,17.16954 7.594219,17.66482 8.254585,0.49527 20.141189,-3.13675 22.2873808,-5.77821 2.1461915,-2.64147 5.7782112,-5.28294 9.0800452,0.16509 3.301833,5.44802 -3.632018,24.92885 -3.962202,25.9194 -0.330184,0.99055 2.641468,18.49027 9.245137,18.82045 6.603669,0.33019 26.249582,-4.29238 27.07504,-8.08949 0.82546,-3.79711 3.962201,-15.68371 -1.485824,-21.46192 -5.448027,-5.77821 -3.466928,-13.37243 -1.485825,-16.83936 1.981099,-3.46692 5.282935,-5.44803 2.641467,-14.03279 -2.641467,-8.58477 -11.061147,-10.89606 -4.457477,-17.00445 6.603669,-6.1084 8.914952,-11.22624 18.655363,-6.43858 9.740413,4.78766 21.957199,15.84881 28.065592,8.74986 6.108393,-7.09894 15.02335,-18.49027 11.061147,-28.06559 -3.962202,-9.57532 -13.867707,-13.70261 -19.645916,-13.04224 -5.778209,0.66036 -7.264035,-1.48583 -5.613119,-9.08005 1.650918,-7.59422 4.787661,-7.26403 0.990552,-18.98555 -3.797109,-11.72151 -2.641468,-13.37243 -8.749861,-17.99499 -6.108395,-4.62257 -6.108395,2.31128 -5.778211,-8.58477"
       id="path25" />
    <path
       style="fill:none;fill-opacity:1;stroke:#079700;stroke-width:1.165;stroke-dasharray:none;stroke-opacity:1"
       d="M 175.50172,94.839096 148.4249,128.63029 c 0,0 -5.61312,15.07595 1.48582,23.66073 7.09894,8.58477 11.22624,11.17815 16.34408,11.53237 5.11785,0.35423 10.0706,-4.59852 13.04225,-6.90981 2.97165,-2.31128 5.9433,-9.57532 6.76876,-17.33463 0.82546,-7.75931 -3.13674,-11.39133 3.30183,-16.67426 6.43858,-5.28294 8.91495,2.97165 7.59422,6.60367 -1.32073,3.63202 -3.30183,19.15064 -1.48582,21.9572 1.816,2.80656 1.15564,6.60367 -1.15565,8.91495 -2.31128,2.31128 -3.30183,8.25459 -5.9433,8.25459 -2.64147,0 -6.76876,-5.61312 -13.37243,-1.65092 -6.60367,3.9622 -13.53752,7.09894 -12.87715,11.55642 0.66037,4.45748 0.49527,10.23569 2.97165,12.38188 2.47638,2.14619 -2.47638,7.42913 -4.78766,9.57532 -2.31129,2.14619 -3.30184,5.28293 -5.9433,4.62257 -2.64147,-0.66037 -7.9244,-5.11785 -11.39133,-3.9622 -3.46693,1.15564 -13.70261,3.63201 -14.19789,7.09894 -0.49528,3.46692 -0.16509,12.87715 -0.16509,12.87715 0,0 -0.66037,17.16954 7.59422,17.66482 8.25458,0.49527 20.14119,-3.13675 22.28738,-5.77821 2.14619,-2.64147 5.77821,-5.28294 9.08005,0.16509 3.30183,5.44802 -3.63202,24.92885 -3.96221,25.9194 -0.33018,0.99055 2.64147,18.49027 9.24514,18.82045 6.60367,0.33019 26.24958,-4.29238 27.07504,-8.08949 0.82546,-3.79711 3.9622,-15.68371 -1.48582,-21.46192 -5.44803,-5.77821 -3.46693,-13.37243 -1.48583,-16.83936 1.9811,-3.46692 5.28294,-5.44803 2.64147,-14.03279 -2.64147,-8.58477 -11.06115,-10.89606 -4.45748,-17.00445 6.60367,-6.1084 8.91495,-11.22624 18.65536,-6.43858 9.74042,4.78766 21.9572,15.84881 28.0656,8.74986 6.10839,-7.09894 15.02334,-18.49027 11.06114,-28.06559 -3.9622,-9.57532 -13.8677,-13.70261 -19.64591,-13.04224 -5.77821,0.66036 -7.26404,-1.48583 -5.61312,-9.08005 1.65092,-7.59422 4.78766,-7.26404 0.99055,-18.98555 -3.79711,-11.72151 -2.64147,-13.37243 -8.74986,-17.995 -6.1084,-4.62256 -6.1084,2.31129 -5.77821,-8.58477"
       id="path25-7" />
  </g>
</svg>
